SplineFontDB: 3.0
FontName: Diamonaire
FullName: Diamonaire
FamilyName: Diamonaire
Weight: Regular
Copyright: Made by Sik in 2016\nDo whatever you want with this font, no credit needed
UComments: "2016-3-3: Created." 
FontLog: "1.1 - Latin Extended+AAoA-1.0 - ASCII+AAoA-0.2 - Numbers+AAoA-0.1 - Letters" 
Version: 1.1
ItalicAngle: 0
UnderlinePosition: -6
UnderlineWidth: 3
Ascent: 28
Descent: 8
LayerCount: 2
Layer: 0 0 "Atr+AOEA-s"  1
Layer: 1 0 "Fore"  0
XUID: [1021 571 375086453 4894787]
FSType: 8
OS2Version: 0
OS2_WeightWidthSlopeOnly: 0
OS2_UseTypoMetrics: 1
CreationTime: 1457045742
ModificationTime: 1477873457
PfmFamily: 81
TTFWeight: 500
TTFWidth: 5
LineGap: 0
VLineGap: 0
OS2TypoAscent: 0
OS2TypoAOffset: 1
OS2TypoDescent: 0
OS2TypoDOffset: 1
OS2TypoLinegap: 0
OS2WinAscent: 0
OS2WinAOffset: 1
OS2WinDescent: 0
OS2WinDOffset: 1
HheadAscent: 36
HheadAOffset: 0
HheadDescent: -8
HheadDOffset: 0
OS2FamilyClass: 2306
OS2Vendor: 'Sik '
MarkAttachClasses: 1
DEI: 91125
Encoding: UnicodeBmp
UnicodeInterp: none
NameList: Adobe Glyph List
DisplaySize: -48
AntiAlias: 1
FitToEm: 1
WinInfo: 0 27 9
BeginPrivate: 0
EndPrivate
Grid
-36 35.9231 m 0
 72 35.9231 l 0
EndSplineSet
BeginChars: 65536 192

StartChar: o
Encoding: 111 111 0
Width: 20
VWidth: 0
Flags: HW
LayerCount: 2
Fore
SplineSet
6 7 m 25
 10 3 l 25
 14 7 l 25
 14 13 l 25
 10 17 l 25
 6 13 l 25
 6 7 l 25
8 0 m 25
 2 6 l 25
 2 14 l 25
 8 20 l 25
 12 20 l 25
 18 14 l 25
 18 6 l 25
 12 0 l 25
 8 0 l 25
EndSplineSet
EndChar

StartChar: i
Encoding: 105 105 1
Width: 14
VWidth: 0
Flags: HW
LayerCount: 2
Fore
SplineSet
7 28 m 29
 10 25 l 29
 7 22 l 29
 4 25 l 29
 7 28 l 29
2 17 m 17
 7 20 l 1
 9 20 l 9
 9 5 l 25
 12 5 l 25
 12 3 l 17
 7 0 l 1
 5 0 l 9
 5 15 l 25
 2 15 l 25
 2 17 l 17
EndSplineSet
EndChar

StartChar: c
Encoding: 99 99 2
Width: 20
VWidth: 0
Flags: HW
LayerCount: 2
Fore
SplineSet
18 7 m 1
 18 6 l 9
 12 0 l 25
 8 0 l 25
 2 6 l 25
 2 14 l 29
 8 20 l 25
 12 20 l 17
 15 17 l 1
 15 20 l 1
 18 20 l 1
 18 14 l 1
 13 14 l 25
 10 17 l 25
 6 13 l 29
 6 7 l 25
 10 3 l 25
 14 7 l 25
 18 7 l 1
EndSplineSet
EndChar

StartChar: C
Encoding: 67 67 3
Width: 24
VWidth: 0
Flags: HW
LayerCount: 2
Fore
SplineSet
22 8 m 1
 22 7 l 9
 15 0 l 25
 11 0 l 25
 2 9 l 25
 2 21 l 25
 9 28 l 25
 13 28 l 17
 16 25 l 1
 18 27 l 1
 22 27 l 1
 22 26 l 1
 18 22 l 1
 14 22 l 25
 11 25 l 25
 6 20 l 25
 6 10 l 25
 13 3 l 25
 18 8 l 25
 22 8 l 1
EndSplineSet
EndChar

StartChar: O
Encoding: 79 79 4
Width: 26
VWidth: 0
Flags: HW
LayerCount: 2
Fore
SplineSet
6 10 m 29
 13 3 l 29
 20 10 l 29
 20 18 l 29
 13 25 l 29
 6 18 l 29
 6 10 l 29
11 0 m 29
 2 9 l 29
 2 19 l 29
 11 28 l 29
 15 28 l 29
 24 19 l 29
 24 9 l 29
 15 0 l 29
 11 0 l 29
EndSplineSet
EndChar

StartChar: U
Encoding: 85 85 5
Width: 28
VWidth: 0
Flags: HW
LayerCount: 2
Fore
SplineSet
10 0 m 1
 4 6 l 1
 4 23 l 1
 2 23 l 1
 2 26 l 1
 6 28 l 1
 8 28 l 9
 8 7 l 25
 12 3 l 25
 20 10 l 17
 20 23 l 1
 18 23 l 1
 18 26 l 1
 22 28 l 1
 24 28 l 1
 24 5 l 1
 26 5 l 1
 26 2 l 1
 22 0 l 1
 20 0 l 9
 20 5 l 17
 14 0 l 1
 10 0 l 1
EndSplineSet
EndChar

StartChar: P
Encoding: 80 80 6
Width: 24
VWidth: 0
Flags: HW
LayerCount: 2
Fore
SplineSet
8 15 m 25
 13 10 l 25
 18 15 l 25
 18 21 l 25
 14 25 l 25
 8 19 l 25
 8 15 l 25
11 7 m 17
 8 10 l 1
 8 3 l 1
 12 3 l 1
 12 0 l 1
 2 0 l 1
 2 3 l 1
 4 3 l 1
 4 23 l 1
 2 23 l 1
 2 26 l 1
 6 28 l 1
 8 28 l 1
 8 24 l 1
 12 28 l 9
 16 28 l 25
 22 22 l 25
 22 14 l 25
 15 7 l 25
 11 7 l 17
EndSplineSet
EndChar

StartChar: V
Encoding: 86 86 7
Width: 26
VWidth: 0
Flags: HW
LayerCount: 2
Fore
SplineSet
24 13 m 9
 14 0 l 25
 4 13 l 17
 4 23 l 1
 2 23 l 1
 2 26 l 1
 6 28 l 1
 8 28 l 9
 8 14 l 25
 14 6 l 25
 20 14 l 17
 20 23 l 1
 18 23 l 1
 18 26 l 1
 22 28 l 1
 24 28 l 1
 24 13 l 9
EndSplineSet
EndChar

StartChar: a
Encoding: 97 97 8
Width: 22
VWidth: 0
Flags: HW
LayerCount: 2
Fore
SplineSet
6 5 m 25
 8 3 l 25
 14 9 l 25
 14 17 l 25
 12 17 l 25
 6 11 l 25
 6 5 l 25
18 5 m 1
 20 5 l 1
 20 2 l 1
 16 0 l 1
 14 0 l 1
 14 4 l 1
 10 0 l 9
 6 0 l 25
 2 4 l 25
 2 12 l 25
 10 20 l 25
 18 20 l 25
 18 5 l 1
EndSplineSet
EndChar

StartChar: D
Encoding: 68 68 9
Width: 26
VWidth: 0
Flags: HW
LayerCount: 2
Fore
SplineSet
8 8 m 25
 13 3 l 25
 20 10 l 25
 20 20 l 25
 15 25 l 25
 8 18 l 25
 8 8 l 25
11 0 m 17
 8 3 l 1
 8 0 l 1
 1 0 l 1
 1 2 l 1
 4 4 l 1
 4 23 l 1
 1 23 l 1
 1 25 l 1
 6 28 l 1
 8 28 l 1
 8 23 l 1
 13 28 l 9
 17 28 l 25
 24 21 l 25
 24 9 l 25
 15 0 l 25
 11 0 l 17
EndSplineSet
EndChar

StartChar: W
Encoding: 87 87 10
Width: 34
VWidth: 0
Flags: HW
LayerCount: 2
Fore
SplineSet
20 8 m 1
 12 0 l 25
 4 8 l 17
 4 23 l 1
 2 23 l 1
 2 26 l 1
 6 28 l 1
 8 28 l 9
 8 9 l 25
 12 5 l 25
 16 9 l 17
 20 8 l 1
24 0 m 25
 16 8 l 17
 16 23 l 1
 14 23 l 1
 14 26 l 1
 18 28 l 1
 20 28 l 9
 20 9 l 25
 24 5 l 25
 28 9 l 17
 28 23 l 1
 26 23 l 1
 26 26 l 1
 30 28 l 1
 32 28 l 1
 32 8 l 1
 24 0 l 25
EndSplineSet
EndChar

StartChar: w
Encoding: 119 119 11
Width: 30
VWidth: 0
Flags: HW
LayerCount: 2
Fore
SplineSet
18 7 m 1
 11 0 l 25
 4 7 l 17
 4 15 l 1
 2 15 l 1
 2 18 l 1
 6 20 l 1
 8 20 l 9
 8 8 l 25
 11 5 l 25
 14 8 l 17
 18 7 l 1
21 0 m 25
 14 7 l 17
 14 15 l 1
 12 15 l 1
 12 18 l 1
 16 20 l 1
 18 20 l 9
 18 8 l 25
 21 5 l 25
 24 8 l 17
 24 15 l 1
 22 15 l 1
 22 18 l 1
 26 20 l 1
 28 20 l 1
 28 7 l 1
 21 0 l 25
EndSplineSet
EndChar

StartChar: v
Encoding: 118 118 12
Width: 22
VWidth: 0
Flags: HW
LayerCount: 2
Fore
SplineSet
20 10 m 9
 12 0 l 25
 4 10 l 17
 4 15 l 1
 2 15 l 1
 2 18 l 1
 6 20 l 1
 8 20 l 9
 8 11 l 25
 12 6 l 25
 16 11 l 17
 16 15 l 1
 14 15 l 1
 14 18 l 1
 18 20 l 1
 20 20 l 1
 20 10 l 9
EndSplineSet
EndChar

StartChar: b
Encoding: 98 98 13
Width: 22
VWidth: 0
Flags: HW
LayerCount: 2
Fore
SplineSet
8 6 m 25
 11 3 l 25
 16 8 l 25
 16 15 l 25
 14 17 l 25
 8 11 l 25
 8 6 l 25
9 0 m 25
 4 5 l 25
 4 23 l 17
 2 23 l 1
 2 26 l 1
 6 28 l 1
 8 28 l 1
 8 16 l 1
 12 20 l 9
 16 20 l 25
 20 16 l 25
 20 7 l 25
 13 0 l 25
 9 0 l 25
EndSplineSet
EndChar

StartChar: d
Encoding: 100 100 14
Width: 22
VWidth: 0
Flags: HW
LayerCount: 2
Fore
SplineSet
6 6 m 25
 9 3 l 25
 14 8 l 25
 14 17 l 25
 11 17 l 25
 6 12 l 25
 6 6 l 25
7 0 m 25
 2 5 l 25
 2 13 l 25
 9 20 l 25
 14 20 l 17
 14 23 l 1
 12 23 l 1
 12 26 l 1
 16 28 l 1
 18 28 l 9
 18 5 l 17
 20 5 l 1
 20 2 l 1
 16 0 l 1
 14 0 l 1
 14 3 l 1
 11 0 l 9
 7 0 l 25
EndSplineSet
EndChar

StartChar: p
Encoding: 112 112 15
Width: 22
VWidth: 0
Flags: HW
LayerCount: 2
Fore
SplineSet
8 7 m 25
 12 3 l 25
 16 7 l 25
 16 15 l 25
 14 17 l 25
 8 11 l 25
 8 7 l 25
10 0 m 17
 8 2 l 1
 8 -5 l 1
 12 -5 l 1
 12 -8 l 1
 2 -8 l 1
 2 -5 l 1
 4 -5 l 1
 4 15 l 1
 2 15 l 1
 2 18 l 1
 6 20 l 1
 8 20 l 1
 8 16 l 1
 12 20 l 9
 16 20 l 25
 20 16 l 25
 20 6 l 25
 14 0 l 25
 10 0 l 17
EndSplineSet
EndChar

StartChar: q
Encoding: 113 113 16
Width: 20
VWidth: 0
Flags: HW
LayerCount: 2
Fore
SplineSet
6 6 m 25
 9 3 l 25
 14 8 l 25
 14 14 l 25
 11 17 l 25
 6 12 l 25
 6 6 l 25
7 0 m 25
 2 5 l 25
 2 13 l 25
 9 20 l 25
 13 20 l 25
 18 15 l 25
 18 -3 l 21
 20 -3 l 5
 20 -6 l 5
 16 -8 l 1
 14 -8 l 1
 14 3 l 1
 11 0 l 9
 7 0 l 25
EndSplineSet
EndChar

StartChar: u
Encoding: 117 117 17
Width: 24
VWidth: 0
Flags: HW
LayerCount: 2
Fore
SplineSet
9 0 m 1
 4 5 l 1
 4 15 l 1
 2 15 l 1
 2 18 l 1
 6 20 l 1
 8 20 l 9
 8 6 l 25
 11 3 l 25
 16 8 l 17
 16 15 l 1
 14 15 l 1
 14 18 l 1
 18 20 l 1
 20 20 l 1
 20 5 l 1
 22 5 l 1
 22 2 l 1
 18 0 l 1
 16 0 l 9
 16 3 l 17
 13 0 l 1
 9 0 l 1
EndSplineSet
EndChar

StartChar: y
Encoding: 121 121 18
Width: 22
VWidth: 0
Flags: HW
LayerCount: 2
Fore
SplineSet
9 2 m 5
 4 7 l 5
 4 15 l 5
 2 15 l 5
 2 18 l 5
 6 20 l 5
 8 20 l 13
 8 8 l 29
 11 5 l 29
 16 10 l 21
 16 15 l 5
 14 15 l 5
 14 18 l 5
 18 20 l 5
 20 20 l 5
 20 -1 l 5
 13 -8 l 5
 9 -8 l 5
 3 -2 l 5
 3 -1 l 5
 7 -1 l 5
 11 -5 l 5
 16 0 l 5
 16 4.7998 l 5
 13 1.91992 l 5
 9 2 l 5
EndSplineSet
EndChar

StartChar: f
Encoding: 102 102 19
Width: 22
VWidth: 0
Flags: HW
LayerCount: 2
Fore
SplineSet
5 -8 m 1
 1 -4 l 1
 1 -3 l 1
 5 -3 l 1
 7 -5 l 1
 9 -3 l 1
 9 12 l 1
 3 12 l 1
 5 16 l 1
 9 16 l 1
 9 24 l 9
 13 28 l 25
 17 28 l 25
 21 24 l 25
 21 23 l 25
 17 23 l 25
 15 25 l 25
 13 23 l 17
 13 16 l 1
 20 16 l 1
 18 12 l 1
 13 12 l 1
 13 -4 l 1
 9 -8 l 1
 5 -8 l 1
EndSplineSet
EndChar

StartChar: n
Encoding: 110 110 20
Width: 24
VWidth: 0
Flags: HW
LayerCount: 2
Fore
SplineSet
16 20 m 1
 20 16 l 1
 20 5 l 1
 22 5 l 1
 22 2 l 1
 18 0 l 1
 16 0 l 9
 16 15 l 25
 14 17 l 25
 8 11 l 17
 8 0 l 1
 4 0 l 1
 4 15 l 1
 2 15 l 1
 2 18 l 1
 6 20 l 1
 8 20 l 9
 8 16 l 17
 12 20 l 1
 16 20 l 1
EndSplineSet
EndChar

StartChar: m
Encoding: 109 109 21
Width: 32
VWidth: 0
Flags: HW
LayerCount: 2
Fore
SplineSet
24 20 m 1
 28 16 l 1
 28 5 l 1
 30 5 l 1
 30 2 l 1
 26 0 l 1
 24 0 l 9
 24 15 l 25
 22 17 l 25
 18 13 l 17
 16 16 l 17
 20 20 l 1
 24 20 l 1
14 20 m 1
 18 16 l 1
 18 4 l 1
 14 4 l 9
 14 15 l 25
 12 17 l 25
 8 13 l 17
 8 0 l 1
 4 0 l 1
 4 15 l 1
 2 15 l 1
 2 18 l 1
 6 20 l 1
 8 20 l 9
 8 18 l 17
 10 20 l 1
 14 20 l 1
EndSplineSet
EndChar

StartChar: r
Encoding: 114 114 22
Width: 20
VWidth: 0
Flags: HW
LayerCount: 2
Fore
SplineSet
14 20 m 1
 19 15 l 1
 19 14 l 1
 15 14 l 9
 12 17 l 25
 8 13 l 17
 8 3 l 1
 12 3 l 1
 12 0 l 1
 2 0 l 1
 2 3 l 1
 4 3 l 1
 4 15 l 1
 2 15 l 1
 2 18 l 1
 6 20 l 1
 8 20 l 9
 8 18 l 17
 10 20 l 1
 14 20 l 1
EndSplineSet
EndChar

StartChar: t
Encoding: 116 116 23
Width: 22
VWidth: 0
Flags: HW
LayerCount: 2
Fore
SplineSet
20 5 m 25
 15 0 l 25
 11 0 l 25
 6 5 l 17
 6 16 l 1
 2 16 l 1
 4 20 l 1
 6 20 l 1
 6 26 l 9
 10 28 l 17
 10 20 l 1
 17 20 l 1
 15 16 l 1
 10 16 l 1
 10 6 l 9
 13 3 l 25
 16 6 l 25
 20 6 l 25
 20 5 l 25
EndSplineSet
EndChar

StartChar: l
Encoding: 108 108 24
Width: 18
VWidth: 0
Flags: HW
LayerCount: 2
Fore
SplineSet
2 26 m 1
 6 28 l 1
 8 28 l 1
 8 5 l 9
 10 3 l 25
 12 5 l 25
 16 5 l 25
 16 4 l 25
 12 0 l 25
 8 0 l 25
 4 4 l 17
 4 23 l 1
 2 23 l 1
 2 26 l 1
EndSplineSet
EndChar

StartChar: e
Encoding: 101 101 25
Width: 20
VWidth: 0
Flags: HW
LayerCount: 2
Fore
SplineSet
5 12 m 29
 14 12 l 29
 14 14 l 29
 18 14 l 29
 18 9 l 29
 5 9 l 29
 5 12 l 29
16 5 m 5
 16 4 l 13
 12 0 l 29
 8 0 l 29
 2 6 l 29
 2 14 l 29
 8 20 l 29
 12 20 l 29
 18 14 l 21
 18 13 l 5
 14 13 l 13
 10 17 l 29
 6 13 l 29
 6 7 l 29
 10 3 l 29
 12 5 l 21
 16 5 l 5
EndSplineSet
EndChar

StartChar: x
Encoding: 120 120 26
Width: 24
VWidth: 0
Flags: HW
LayerCount: 2
Fore
SplineSet
5 0 m 25
 2 3 l 25
 2 5 l 25
 5 5 l 25
 7 3 l 25
 10 6 l 25
 10 14 l 25
 7 17 l 25
 5 15 l 25
 2 15 l 25
 2 17 l 25
 5 20 l 25
 9 20 l 25
 12 17 l 25
 15 20 l 25
 19 20 l 25
 22 17 l 25
 22 15 l 25
 19 15 l 25
 17 17 l 25
 14 14 l 25
 14 6 l 25
 17 3 l 25
 19 5 l 25
 22 5 l 25
 22 3 l 25
 19 0 l 25
 15 0 l 25
 12 3 l 25
 9 0 l 25
 5 0 l 25
EndSplineSet
EndChar

StartChar: X
Encoding: 88 88 27
Width: 30
VWidth: 0
Flags: HW
LayerCount: 2
Fore
SplineSet
9 16 m 29
 23 16 l 29
 21 13 l 29
 7 13 l 29
 9 16 l 29
6 0 m 25
 2 4 l 25
 2 6 l 25
 5 6 l 25
 8 3 l 25
 13 8 l 25
 13 20 l 25
 8 25 l 25
 5 22 l 25
 2 22 l 25
 2 24 l 25
 6 28 l 25
 10 28 l 25
 15 23 l 25
 20 28 l 25
 24 28 l 25
 28 24 l 25
 28 22 l 25
 25 22 l 25
 22 25 l 25
 17 20 l 25
 17 8 l 25
 22 3 l 25
 25 6 l 25
 28 6 l 25
 28 4 l 25
 24 0 l 25
 20 0 l 25
 15 5 l 25
 10 0 l 25
 6 0 l 25
EndSplineSet
EndChar

StartChar: h
Encoding: 104 104 28
Width: 24
VWidth: 0
Flags: HW
LayerCount: 2
Fore
SplineSet
16 20 m 1
 20 16 l 1
 20 5 l 1
 22 5 l 1
 22 2 l 1
 18 0 l 1
 16 0 l 9
 16 15 l 25
 14 17 l 25
 8 11 l 17
 8 0 l 1
 4 0 l 1
 4 23 l 1
 2 23 l 1
 2 26 l 1
 6 28 l 1
 8 28 l 9
 8 16 l 17
 12 20 l 1
 16 20 l 1
EndSplineSet
EndChar

StartChar: j
Encoding: 106 106 29
Width: 15
VWidth: 0
Flags: HW
LayerCount: 2
Fore
SplineSet
9 28 m 25
 12 25 l 25
 9 22 l 25
 6 25 l 25
 9 28 l 25
12 20 m 1
 12 -4 l 1
 8 -8 l 1
 4 -8 l 1
 0 -4 l 1
 0 -3 l 1
 4 -3 l 1
 6 -5 l 1
 8 -3 l 1
 8 15 l 1
 4 15 l 1
 4 17 l 1
 10 20 l 1
 12 20 l 1
EndSplineSet
EndChar

StartChar: G
Encoding: 71 71 30
Width: 24
VWidth: 0
Flags: HW
LayerCount: 2
Fore
SplineSet
22 15 m 1
 22 -2 l 1
 16 -8 l 1
 12 -8 l 1
 12 -7 l 1
 18 -1 l 1
 18 4 l 1
 14 0 l 9
 10 0 l 25
 2 8 l 25
 2 21 l 25
 9 28 l 25
 13 28 l 17
 16 25 l 1
 18 27 l 1
 22 27 l 1
 22 26 l 1
 17 21 l 1
 15 21 l 25
 11 25 l 25
 6 20 l 25
 6 9 l 25
 12 3 l 25
 18 9 l 17
 18 11 l 1
 11 11 l 5
 13 15 l 5
 22 15 l 1
EndSplineSet
EndChar

StartChar: E
Encoding: 69 69 31
Width: 28
VWidth: 0
Flags: HW
LayerCount: 2
Fore
SplineSet
2 0 m 9
 2 2 l 25
 6 4 l 25
 6 22 l 25
 10 25 l 17
 10 15 l 1
 20 15 l 1
 20 12 l 1
 10 12 l 1
 10 3 l 1
 18 3 l 1
 21 6 l 1
 26 6 l 9
 26 5 l 17
 21 0 l 1
 2 0 l 9
2 20 m 29
 10 28 l 29
 14 28 l 29
 18 24 l 29
 22 28 l 29
 26 28 l 29
 26 27 l 29
 20 21 l 29
 16 21 l 29
 12 25 l 29
 6 19 l 29
 2 19 l 29
 2 20 l 29
EndSplineSet
EndChar

StartChar: F
Encoding: 70 70 32
Width: 28
VWidth: 0
Flags: HW
LayerCount: 2
Fore
SplineSet
2 0 m 17
 2 2 l 1
 6 4 l 1
 6 22 l 9
 10 25 l 17
 10 15 l 1
 20 15 l 1
 20 12 l 1
 10 12 l 1
 10 3 l 1
 14 3 l 1
 14 0 l 1
 2 0 l 17
2 20 m 25
 10 28 l 25
 14 28 l 25
 18 24 l 25
 22 28 l 25
 26 28 l 25
 26 27 l 25
 20 21 l 25
 16 21 l 25
 12 25 l 25
 6 19 l 25
 2 19 l 25
 2 20 l 25
EndSplineSet
EndChar

StartChar: L
Encoding: 76 76 33
Width: 28
VWidth: 0
Flags: HW
LayerCount: 2
Fore
SplineSet
2 1 m 1
 6 9 l 1
 6 22 l 9
 12 28 l 17
 16 28 l 1
 21 23 l 1
 21 22 l 1
 17 22 l 1
 14 25 l 1
 10 21 l 1
 10 9 l 1
 6 1 l 1
 2 1 l 1
26 6 m 25
 20 0 l 25
 16 0 l 25
 11 5 l 25
 6 0 l 25
 2 0 l 25
 2 1 l 25
 9 8 l 25
 13 8 l 25
 18 3 l 25
 22 7 l 25
 26 7 l 25
 26 6 l 25
EndSplineSet
EndChar

StartChar: z
Encoding: 122 122 34
Width: 22
VWidth: 0
Flags: HW
LayerCount: 2
Fore
SplineSet
2 1 m 25
 2 2 l 25
 16 19 l 25
 20 19 l 25
 20 18 l 25
 6 1 l 25
 2 1 l 25
2 2 m 25
 6 6 l 25
 10 6 l 25
 14 2 l 25
 16 4 l 25
 20 4 l 25
 20 3 l 25
 16 -1 l 25
 12 -1 l 25
 8 3 l 25
 6 1 l 25
 2 1 l 25
 2 2 l 25
2 17 m 25
 6 21 l 25
 10 21 l 25
 14 17 l 25
 16 19 l 25
 20 19 l 25
 20 18 l 25
 16 14 l 25
 12 14 l 25
 8 18 l 25
 6 16 l 25
 2 16 l 25
 2 17 l 25
EndSplineSet
EndChar

StartChar: Y
Encoding: 89 89 35
Width: 26
VWidth: 0
Flags: HW
LayerCount: 2
Fore
SplineSet
11 4 m 1
 4 11.2002 l 1
 4 23 l 1
 2 23 l 1
 2 26 l 1
 6 28 l 1
 8 28 l 9
 8 12.2002 l 25
 13 7 l 25
 20 14.2002 l 17
 20 23 l 1
 18 23 l 1
 18 26 l 1
 22 28 l 1
 24 28 l 1
 24 1 l 1
 15 -8 l 1
 11 -8 l 1
 3 0 l 1
 3 1 l 1
 7 1 l 1
 13 -5 l 1
 20 2 l 1
 20 9 l 1
 15 3.91992 l 1
 11 4 l 1
EndSplineSet
EndChar

StartChar: Z
Encoding: 90 90 36
Width: 26
VWidth: 0
Flags: HW
LayerCount: 2
Fore
SplineSet
7 16 m 29
 21 16 l 29
 19 13 l 29
 5 13 l 29
 7 16 l 29
2 0 m 25
 2 1 l 25
 20 28 l 25
 24 28 l 25
 24 27 l 25
 6 0 l 25
 2 0 l 25
2 1 m 25
 8 7 l 25
 12 7 l 25
 16 3 l 25
 20 7 l 25
 24 7 l 25
 24 6 l 25
 18 0 l 25
 14 0 l 25
 10 4 l 25
 6 0 l 25
 2 0 l 25
 2 1 l 25
2 22 m 25
 8 28 l 25
 12 28 l 25
 16 24 l 25
 20 28 l 25
 24 28 l 25
 24 27 l 25
 18 21 l 25
 14 21 l 25
 10 25 l 25
 6 21 l 25
 2 21 l 25
 2 22 l 25
EndSplineSet
EndChar

StartChar: H
Encoding: 72 72 37
Width: 26
VWidth: 0
Flags: HW
LayerCount: 2
Fore
SplineSet
7 16 m 25
 19 16 l 25
 19 13 l 25
 7 13 l 25
 7 16 l 25
25 28 m 25
 25 27 l 25
 21 23 l 25
 21 3 l 25
 24 3 l 25
 24 0 l 25
 17 0 l 25
 17 24 l 25
 21 28 l 25
 25 28 l 25
1 0 m 29
 1 1 l 29
 5 5 l 29
 5 25 l 29
 2 25 l 29
 2 28 l 29
 9 28 l 29
 9 4 l 29
 5 0 l 29
 1 0 l 29
EndSplineSet
EndChar

StartChar: I
Encoding: 73 73 38
Width: 20
VWidth: 0
Flags: HW
LayerCount: 2
Fore
SplineSet
12 1 m 25
 8 3 l 25
 8 27 l 25
 12 25 l 25
 12 1 l 25
2 1 m 25
 6 5 l 25
 10 5 l 25
 12 3 l 29
 14 5 l 29
 18 5 l 29
 18 4 l 29
 14 0 l 29
 10 0 l 29
 8 2 l 25
 6 0 l 25
 2 0 l 25
 2 1 l 25
2 24 m 25
 6 28 l 25
 10 28 l 25
 12 26 l 25
 14 28 l 25
 18 28 l 25
 18 27 l 25
 14 23 l 25
 10 23 l 25
 8 25 l 25
 6 23 l 25
 2 23 l 25
 2 24 l 25
EndSplineSet
EndChar

StartChar: T
Encoding: 84 84 39
Width: 24
VWidth: 0
Flags: HW
LayerCount: 2
Fore
SplineSet
22 6 m 25
 16 0 l 25
 8 0 l 25
 2 6 l 25
 2 12 l 25
 13 23 l 25
 17 23 l 25
 17 22 l 17
 6 11 l 1
 6 7 l 9
 10 3 l 25
 14 3 l 25
 18 7 l 17
 18 9 l 1
 16 11 l 1
 14 9 l 1
 14 7 l 1
 10 7 l 1
 10 10 l 1
 14 14 l 1
 18 14 l 1
 22 10 l 9
 22 6 l 25
2 24 m 25
 6 28 l 25
 10 28 l 25
 14 24 l 25
 18 28 l 25
 22 28 l 25
 22 27 l 25
 16 21 l 25
 12 21 l 25
 8 25 l 25
 6 23 l 25
 2 23 l 25
 2 24 l 25
EndSplineSet
EndChar

StartChar: J
Encoding: 74 74 40
Width: 24
VWidth: 0
Flags: HW
LayerCount: 2
Fore
SplineSet
22 26 m 25
 22 8 l 25
 14 0 l 25
 10 0 l 25
 2 8 l 17
 2 9 l 1
 6 9 l 9
 12 3 l 25
 18 9 l 25
 18 24 l 25
 22 26 l 25
4 24 m 25
 8 28 l 25
 12 28 l 25
 16 24 l 25
 18 26 l 25
 22 26 l 25
 22 25 l 25
 18 21 l 25
 14 21 l 25
 10 25 l 25
 8 23 l 25
 4 23 l 25
 4 24 l 25
EndSplineSet
EndChar

StartChar: g
Encoding: 103 103 42
Width: 20
VWidth: 0
Flags: HW
LayerCount: 2
Fore
SplineSet
6 9 m 25
 10 5 l 25
 14 9 l 25
 14 13 l 25
 10 17 l 25
 6 13 l 25
 6 9 l 25
8 2 m 25
 2 8 l 25
 2 14 l 25
 8 20 l 25
 12 20 l 25
 18 14 l 25
 18 -2 l 17
 12 -8 l 1
 8 -8 l 1
 2 -2 l 1
 2 -1 l 1
 6 -1 l 1
 10 -5 l 1
 14 -1 l 1
 14 4 l 1
 12 2 l 9
 8 2 l 25
EndSplineSet
EndChar

StartChar: Q
Encoding: 81 81 43
Width: 26
VWidth: 0
Flags: HW
LayerCount: 2
Fore
SplineSet
6 10 m 25
 13 3 l 25
 20 10 l 25
 20 18 l 25
 13 25 l 25
 6 18 l 25
 6 10 l 25
11 0 m 25
 2 9 l 25
 2 19 l 25
 11 28 l 25
 15 28 l 25
 24 19 l 25
 24 9 l 25
 15 0 l 25
 11 0 l 25
4 -6 m 25
 14 4 l 17
 18 4 l 1
 18 3 l 1
 13 -2 l 9
 16 -5 l 25
 20 -1 l 25
 24 -1 l 25
 24 -2 l 25
 18 -8 l 25
 15 -8 l 25
 11 -4 l 25
 8 -7 l 25
 4 -7 l 25
 4 -6 l 25
EndSplineSet
EndChar

StartChar: k
Encoding: 107 107 44
Width: 22
VWidth: 0
Flags: HW
LayerCount: 2
Fore
SplineSet
20 20 m 25
 20 17 l 25
 17 17 l 25
 15 15 l 25
 15 13 l 25
 11 9 l 25
 6 9 l 25
 6 12 l 25
 9 12 l 25
 11 14 l 25
 11 16 l 25
 15 20 l 25
 20 20 l 25
20 0 m 25
 16 0 l 25
 12 4 l 25
 12 7 l 25
 10 9 l 25
 6 9 l 25
 6 12 l 25
 12 12 l 25
 16 8 l 25
 16 5 l 25
 18 3 l 25
 20 3 l 25
 20 0 l 25
8 0 m 1
 4 0 l 1
 4 23 l 1
 2 23 l 1
 2 26 l 1
 6 28 l 1
 8 28 l 9
 8 0 l 1
EndSplineSet
EndChar

StartChar: R
Encoding: 82 82 45
Width: 24
VWidth: 0
Flags: HW
LayerCount: 2
Fore
SplineSet
8 14 m 29
 13 14 l 29
 18 19 l 29
 18 21 l 29
 14 25 l 29
 8 19 l 29
 8 14 l 29
8 11 m 5
 8 3 l 5
 11 3 l 5
 11 0 l 5
 2 0 l 5
 2 3 l 5
 4 3 l 5
 4 23 l 5
 2 23 l 5
 2 26 l 5
 6 28 l 5
 8 28 l 5
 8 24 l 5
 12 28 l 13
 16 28 l 29
 22 22 l 29
 22 18 l 29
 16 12 l 21
 20 8 l 5
 20 1 l 5
 24 -3 l 5
 24 -4 l 5
 20 -4 l 5
 16 0 l 5
 16 7 l 5
 12 11 l 5
 8 11 l 5
EndSplineSet
EndChar

StartChar: s
Encoding: 115 115 46
Width: 18
VWidth: 0
Flags: HW
LayerCount: 2
Fore
SplineSet
2 15 m 25
 6 15 l 25
 16 5 l 25
 16 4 l 25
 12 4 l 25
 2 14 l 25
 2 15 l 25
12 14 m 25
 9 17 l 25
 6 14 l 25
 2 14 l 1
 2 15 l 9
 7 20 l 25
 11 20 l 25
 16 15 l 17
 16 14 l 1
 12 14 l 25
16 5 m 1
 16 4 l 9
 11 -1 l 25
 7 -1 l 25
 2 4 l 17
 2 5 l 1
 6 5 l 25
 9 2 l 25
 12 5 l 25
 16 5 l 1
EndSplineSet
EndChar

StartChar: S
Encoding: 83 83 47
Width: 23
VWidth: 0
Flags: HW
LayerCount: 2
Fore
SplineSet
2 21 m 29
 6 21 l 29
 21 8 l 29
 21 7 l 29
 17 7 l 29
 2 20 l 29
 2 21 l 29
14 22 m 13
 11 25 l 29
 6 20 l 29
 2 20 l 5
 2 21 l 13
 9 28 l 29
 13 28 l 21
 16 25 l 5
 18 27 l 5
 22 27 l 5
 22 26 l 5
 18 22 l 5
 14 22 l 13
21 8 m 5
 21 7 l 13
 14 0 l 29
 10 0 l 21
 7 3 l 5
 5 1 l 5
 1 1 l 5
 1 2 l 5
 5 6 l 5
 9 6 l 13
 12 3 l 29
 17 8 l 29
 21 8 l 5
EndSplineSet
EndChar

StartChar: K
Encoding: 75 75 48
Width: 26
VWidth: 0
Flags: HW
LayerCount: 2
Fore
SplineSet
24 28 m 25
 24 25 l 25
 20 25 l 25
 17 22 l 25
 17 17 l 25
 13 13 l 25
 7 13 l 25
 7 16 l 25
 11 16 l 25
 13 18 l 25
 13 23 l 25
 18 28 l 25
 24 28 l 25
24 0 m 29
 20 0 l 29
 16 4 l 29
 16 9 l 29
 12 13 l 29
 7 13 l 29
 7 16 l 29
 14 16 l 29
 20 10 l 29
 20 5 l 29
 22 3 l 29
 24 3 l 29
 24 0 l 29
1 0 m 25
 1 1 l 25
 5 5 l 25
 5 25 l 25
 2 25 l 25
 2 28 l 25
 9 28 l 25
 9 4 l 25
 5 0 l 25
 1 0 l 25
EndSplineSet
EndChar

StartChar: B
Encoding: 66 66 49
Width: 24
VWidth: 0
Flags: HW
LayerCount: 2
Fore
SplineSet
8 13 m 17
 8 7 l 1
 12 3 l 9
 16 3 l 17
 18 5 l 1
 18 10 l 1
 15 13 l 9
 8 13 l 17
12 25 m 1
 8 21 l 13
 8 16 l 29
 12 16 l 25
 15 19 l 25
 15 22 l 25
 12 25 l 1
18 0 m 1
 11 0 l 1
 8 3 l 1
 8 0 l 1
 2 0 l 1
 2 3 l 1
 4 3 l 1
 4 23 l 5
 2 23 l 5
 2 26 l 5
 6 28 l 5
 8 28 l 5
 8 25 l 5
 11 28 l 13
 14 28 l 25
 19 23 l 25
 19 18 l 17
 16 15 l 1
 18 15 l 1
 22 11 l 1
 22 4 l 1
 18 0 l 1
EndSplineSet
EndChar

StartChar: N
Encoding: 78 78 50
Width: 28
VWidth: 0
Flags: HW
LayerCount: 2
Fore
SplineSet
6 28 m 25
 10 28 l 25
 22 0 l 25
 18 0 l 25
 6 28 l 25
26 28 m 25
 26 27 l 25
 22 23 l 25
 22 3 l 25
 25 3 l 29
 25 0 l 29
 18 0 l 25
 18 24 l 25
 22 28 l 25
 26 28 l 25
2 0 m 25
 2 1 l 25
 6 5 l 25
 6 25 l 25
 3 25 l 25
 3 28 l 25
 10 28 l 25
 10 4 l 25
 6 0 l 25
 2 0 l 25
EndSplineSet
EndChar

StartChar: M
Encoding: 77 77 51
Width: 32
VWidth: 0
Flags: HW
LayerCount: 2
Fore
SplineSet
16 5 m 1
 15 11 l 1
 23 28 l 9
 27 28 l 17
 16 5 l 1
31 0 m 25
 27 0 l 25
 23 4 l 25
 23 28 l 25
 30 28 l 25
 30 25 l 25
 27 25 l 25
 27 5 l 25
 31 1 l 25
 31 0 l 25
16 5 m 1
 5 28 l 9
 9 28 l 17
 17 11 l 1
 16 5 l 1
1 0 m 25
 1 1 l 25
 5 5 l 25
 5 25 l 25
 2 25 l 29
 2 28 l 29
 9 28 l 25
 9 4 l 25
 5 0 l 25
 1 0 l 25
EndSplineSet
EndChar

StartChar: A
Encoding: 65 65 52
Width: 28
VWidth: 0
Flags: HW
LayerCount: 2
Fore
SplineSet
10 14 m 25
 19 14 l 25
 19 25 l 25
 17 25 l 25
 10 18 l 25
 10 14 l 25
2 0 m 25
 2 1 l 25
 6 5 l 25
 6 19 l 25
 15 28 l 25
 26 28 l 25
 26 25 l 25
 23 25 l 25
 23 3 l 25
 26 3 l 25
 26 0 l 25
 19 0 l 25
 19 11 l 25
 10 11 l 25
 10 4 l 25
 6 0 l 25
 2 0 l 25
EndSplineSet
EndChar

StartChar: zero
Encoding: 48 48 53
Width: 22
VWidth: 0
Flags: HW
LayerCount: 2
Fore
SplineSet
11 19 m 25
 13 17 l 25
 13 11 l 25
 11 9 l 25
 9 11 l 25
 9 17 l 25
 11 19 l 25
6 8 m 25
 11 3 l 25
 16 8 l 25
 16 20 l 25
 11 25 l 25
 6 20 l 25
 6 8 l 25
9 0 m 25
 2 7 l 25
 2 21 l 25
 9 28 l 25
 13 28 l 25
 20 21 l 25
 20 7 l 25
 13 0 l 25
 9 0 l 25
EndSplineSet
EndChar

StartChar: two
Encoding: 50 50 54
Width: 22
VWidth: 0
Flags: HW
LayerCount: 2
Fore
SplineSet
9 28 m 25
 13 28 l 25
 20 21 l 25
 20 17 l 25
 3 0 l 25
 2 0 l 25
 2 4 l 25
 17 19 l 25
 11 25 l 25
 6 20 l 25
 2 20 l 25
 2 21 l 25
 9 28 l 25
2 1 m 25
 7 6 l 25
 11 6 l 25
 14 3 l 25
 17 6 l 25
 21 6 l 25
 21 5 l 25
 16 0 l 25
 12 0 l 25
 9 3 l 25
 6 0 l 25
 2 0 l 25
 2 1 l 25
EndSplineSet
EndChar

StartChar: six
Encoding: 54 54 55
Width: 22
VWidth: 0
Flags: HW
LayerCount: 2
Fore
SplineSet
6 8 m 25
 11 3 l 25
 16 8 l 25
 16 13 l 25
 12 17 l 25
 6 11 l 25
 6 8 l 25
9 0 m 25
 2 7 l 25
 2 22 l 17
 10 30 l 1
 18 30 l 1
 18 27 l 1
 12 27 l 1
 6 21 l 1
 6 16 l 1
 10 20 l 9
 14 20 l 25
 20 14 l 25
 20 7 l 25
 13 0 l 25
 9 0 l 25
EndSplineSet
EndChar

StartChar: nine
Encoding: 57 57 56
Width: 22
VWidth: 0
Flags: HW
LayerCount: 2
Fore
SplineSet
6 11 m 25
 10 7 l 25
 16 13 l 25
 16 17 l 25
 11 22 l 25
 6 17 l 25
 6 11 l 25
8 4 m 25
 2 10 l 25
 2 18 l 25
 9 25 l 25
 13 25 l 25
 20 18 l 25
 20 2 l 17
 12 -6 l 5
 8 -6 l 5
 8 -5 l 5
 16 3 l 1
 16 8 l 1
 12 4 l 9
 8 4 l 25
EndSplineSet
EndChar

StartChar: eight
Encoding: 56 56 57
Width: 22
VWidth: 0
Flags: HW
LayerCount: 2
Fore
SplineSet
8 23 m 25
 11 20 l 25
 14 23 l 25
 14 26 l 29
 11 29 l 29
 8 26 l 29
 8 23 l 25
9 17 m 25
 4 22 l 25
 4 27 l 29
 9 32 l 29
 13 32 l 29
 18 27 l 29
 18 22 l 25
 13 17 l 25
 9 17 l 25
6 8 m 25
 11 3 l 25
 16 8 l 25
 16 12 l 25
 11 17 l 25
 6 12 l 25
 6 8 l 25
9 0 m 25
 2 7 l 25
 2 13 l 25
 9 20 l 25
 13 20 l 25
 20 13 l 25
 20 7 l 25
 13 0 l 25
 9 0 l 25
EndSplineSet
EndChar

StartChar: seven
Encoding: 55 55 58
Width: 22
VWidth: 0
Flags: HW
LayerCount: 2
Fore
SplineSet
2 28 m 25
 20 28 l 25
 20 24 l 25
 13 10 l 17
 13 0 l 1
 9 0 l 9
 9 11 l 25
 16 25 l 25
 6 25 l 25
 6 19 l 25
 2 19 l 25
 2 28 l 25
EndSplineSet
EndChar

StartChar: one
Encoding: 49 49 59
Width: 22
VWidth: 0
Flags: HW
LayerCount: 2
Fore
SplineSet
3 0 m 25
 3 3 l 25
 9 4 l 17
 9 22 l 1
 3 22 l 1
 3 24 l 1
 11 28 l 1
 13 28 l 9
 13 4 l 25
 19 3 l 25
 19 0 l 25
 3 0 l 25
EndSplineSet
EndChar

StartChar: three
Encoding: 51 51 60
Width: 22
VWidth: 0
Flags: HW
LayerCount: 2
Fore
SplineSet
8 18 m 25
 15 25 l 17
 7 25 l 1
 7 23 l 1
 3 23 l 1
 3 28 l 1
 19 28 l 9
 19 24 l 17
 14 19 l 1
 13 16 l 13
 8 16 l 25
 8 18 l 25
12 17 m 1
 12 18 l 9
 14 20 l 25
 20 14 l 25
 20 7 l 25
 13 0 l 25
 9 0 l 25
 2 7 l 25
 2 11 l 17
 6 11 l 9
 6 8 l 25
 11 3 l 25
 16 8 l 25
 16 13 l 25
 12 17 l 1
EndSplineSet
EndChar

StartChar: five
Encoding: 53 53 61
Width: 22
VWidth: 0
Flags: HW
LayerCount: 2
Fore
SplineSet
2 11 m 1
 2 28 l 1
 18 28 l 1
 18 25 l 1
 6 25 l 1
 6 16 l 1
 10 20 l 9
 14 20 l 25
 20 14 l 25
 20 7 l 25
 11 -2 l 25
 2 -2 l 21
 2 1 l 5
 9 1 l 1
 16 8 l 9
 16 13 l 25
 12 17 l 25
 6 11 l 25
 2 11 l 1
EndSplineSet
EndChar

StartChar: four
Encoding: 52 52 62
Width: 22
VWidth: 0
Flags: HW
LayerCount: 2
Fore
SplineSet
20 9 m 29
 20 6 l 29
 2 6 l 21
 2 7 l 5
 9 20 l 5
 9 28 l 13
 13 28 l 21
 13 19 l 5
 7 9 l 13
 20 9 l 29
18 0 m 29
 14 0 l 29
 14 16 l 29
 18 20 l 29
 18 0 l 29
EndSplineSet
EndChar

StartChar: period
Encoding: 46 46 63
Width: 12
VWidth: 0
Flags: HW
LayerCount: 2
Fore
SplineSet
6 0 m 29
 2 4 l 29
 6 8 l 29
 10 4 l 29
 6 0 l 29
EndSplineSet
EndChar

StartChar: comma
Encoding: 44 44 64
Width: 12
VWidth: 0
Flags: HW
LayerCount: 2
Fore
SplineSet
4 -8 m 29
 2 4 l 25
 6 8 l 25
 10 4 l 25
 4 -8 l 29
EndSplineSet
EndChar

StartChar: quotesingle
Encoding: 39 39 65
Width: 12
VWidth: 0
Flags: HW
LayerCount: 2
Fore
SplineSet
6 16 m 25
 2 26 l 25
 6 30 l 25
 10 26 l 25
 6 16 l 25
EndSplineSet
EndChar

StartChar: hyphen
Encoding: 45 45 66
Width: 20
VWidth: 0
Flags: HW
LayerCount: 2
Fore
SplineSet
4 15 m 29
 18 15 l 29
 16 11 l 29
 2 11 l 29
 4 15 l 29
EndSplineSet
EndChar

StartChar: equal
Encoding: 61 61 67
Width: 20
VWidth: 0
Flags: HW
LayerCount: 2
Fore
SplineSet
4 13 m 25
 18 13 l 25
 16 9 l 25
 2 9 l 25
 4 13 l 25
4 20 m 25
 18 20 l 25
 16 16 l 25
 2 16 l 25
 4 20 l 25
EndSplineSet
EndChar

StartChar: plus
Encoding: 43 43 68
Width: 24
VWidth: 0
Flags: HW
LayerCount: 2
Fore
SplineSet
4 15 m 17
 10 15 l 1
 10 21 l 1
 14 23 l 1
 14 15 l 1
 22 15 l 9
 20 11 l 17
 14 11 l 1
 14 5 l 5
 10 3 l 5
 10 11 l 1
 2 11 l 9
 4 15 l 17
EndSplineSet
EndChar

StartChar: bar
Encoding: 124 124 69
Width: 8
VWidth: 0
Flags: HW
LayerCount: 2
Fore
SplineSet
2 -6 m 25
 2 32 l 29
 6 33.9229 l 29
 6 -4 l 25
 2 -6 l 25
EndSplineSet
EndChar

StartChar: underscore
Encoding: 95 95 70
Width: 20
VWidth: 0
Flags: HW
LayerCount: 2
Fore
SplineSet
4 4 m 29
 18 4 l 29
 16 0 l 29
 2 0 l 29
 4 4 l 29
EndSplineSet
EndChar

StartChar: slash
Encoding: 47 47 71
Width: 20
VWidth: 0
Flags: HW
LayerCount: 2
Fore
SplineSet
1 -2 m 17
 1 -1 l 5
 15 30 l 9
 19 30 l 17
 19 29 l 1
 5 -2 l 9
 1 -2 l 17
EndSplineSet
EndChar

StartChar: backslash
Encoding: 92 92 72
Width: 20
VWidth: 0
Flags: HW
LayerCount: 2
Fore
SplineSet
15 -2 m 17
 1 29 l 1
 1 30 l 9
 5 30 l 17
 19 -1 l 5
 19 -2 l 9
 15 -2 l 17
EndSplineSet
EndChar

StartChar: parenleft
Encoding: 40 40 73
Width: 14
VWidth: 0
Flags: HW
LayerCount: 2
Fore
SplineSet
2 4 m 25
 2 24 l 25
 10 32 l 25
 14 32 l 17
 14 31 l 1
 6 23 l 9
 6 5 l 17
 14 -3 l 1
 14 -4 l 9
 10 -4 l 25
 2 4 l 25
EndSplineSet
EndChar

StartChar: bracketleft
Encoding: 91 91 75
Width: 14
VWidth: 0
Flags: HW
LayerCount: 2
Fore
SplineSet
2 -5 m 25
 2 33 l 25
 14 33 l 25
 12 30 l 25
 6 30 l 25
 6 -2 l 25
 14 -2 l 25
 12 -5 l 25
 2 -5 l 25
EndSplineSet
EndChar

StartChar: dollar
Encoding: 36 36 77
Width: 23
VWidth: 0
Flags: HW
LayerCount: 2
Fore
SplineSet
9 -6 m 25
 10 32 l 25
 14 33.9229 l 25
 13 -4 l 25
 9 -6 l 25
EndSplineSet
Refer: 47 83 N 1 0 0 1 0 0 2
EndChar

StartChar: percent
Encoding: 37 37 78
Width: 20
VWidth: 0
Flags: HW
LayerCount: 2
Fore
SplineSet
6 20 m 29
 2 24 l 29
 6 28 l 29
 10 24 l 29
 6 20 l 29
14 0 m 25
 10 4 l 25
 14 8 l 25
 18 4 l 25
 14 0 l 25
EndSplineSet
Refer: 71 47 N 1 0 0 1 0 0 2
EndChar

StartChar: colon
Encoding: 58 58 79
Width: 12
VWidth: 0
Flags: HW
LayerCount: 2
Fore
SplineSet
6 16 m 25
 2 20 l 25
 6 24 l 25
 10 20 l 25
 6 16 l 25
6 4 m 25
 2 8 l 25
 6 12 l 25
 10 8 l 25
 6 4 l 25
EndSplineSet
EndChar

StartChar: semicolon
Encoding: 59 59 80
Width: 12
VWidth: 0
Flags: HW
LayerCount: 2
Fore
SplineSet
4 -4 m 29
 2 8 l 29
 6 12 l 29
 10 8 l 29
 4 -4 l 29
6 16 m 25
 2 20 l 25
 6 24 l 25
 10 20 l 25
 6 16 l 25
EndSplineSet
EndChar

StartChar: quotedbl
Encoding: 34 34 81
Width: 22
VWidth: 0
Flags: HW
LayerCount: 2
Fore
SplineSet
16 16 m 25
 12 26 l 25
 16 30 l 25
 20 26 l 25
 16 16 l 25
6 16 m 29
 2 26 l 29
 6 30 l 29
 10 26 l 29
 6 16 l 29
EndSplineSet
EndChar

StartChar: exclam
Encoding: 33 33 82
Width: 12
VWidth: 0
Flags: HW
LayerCount: 2
Fore
SplineSet
6 10 m 25
 2 26 l 29
 6 30 l 29
 10 26 l 29
 6 10 l 25
6 0 m 25
 2 4 l 25
 6 8 l 25
 10 4 l 25
 6 0 l 25
EndSplineSet
EndChar

StartChar: numbersign
Encoding: 35 35 83
Width: 26
VWidth: 0
Flags: HW
LayerCount: 2
Fore
SplineSet
3 17 m 25
 5 21 l 25
 24 21 l 25
 22 17 l 25
 3 17 l 25
2 7 m 25
 4 11 l 25
 23 11 l 25
 21 7 l 25
 2 7 l 25
14 0 m 25
 16 26 l 25
 20 27.9229 l 25
 18 2 l 25
 14 0 l 25
6 0 m 25
 8 26 l 25
 12 27.9229 l 25
 10 2 l 25
 6 0 l 25
EndSplineSet
EndChar

StartChar: grave
Encoding: 96 96 84
Width: 12
VWidth: 0
Flags: HW
LayerCount: 2
Fore
SplineSet
10 16 m 29
 2 25 l 25
 5 30 l 25
 10 27 l 25
 10 16 l 29
EndSplineSet
EndChar

StartChar: ampersand
Encoding: 38 38 85
Width: 32
VWidth: 0
Flags: HW
LayerCount: 2
Fore
SplineSet
30 5 m 25
 25 0 l 25
 21 0 l 25
 16 5 l 17
 16 16 l 1
 9 16 l 1
 11 20 l 1
 16 20 l 1
 16 23 l 9
 20 25 l 17
 20 20 l 1
 27 20 l 1
 25 16 l 1
 20 16 l 1
 20 6 l 9
 23 3 l 25
 26 6 l 25
 30 6 l 25
 30 5 l 25
13 27 m 25
 11 29 l 25
 8 26 l 25
 8 23 l 25
 12 19 l 1
 12 17 l 9
 9 17 l 25
 4 22 l 25
 4 27 l 25
 9 32 l 25
 13 32 l 25
 17 28 l 17
 17 27 l 1
 13 27 l 25
6 12 m 25
 6 8 l 25
 11 3 l 25
 16 8 l 25
 20 8 l 1
 20 7 l 9
 13 0 l 25
 9 0 l 25
 2 7 l 25
 2 13 l 25
 9 20 l 25
 12 20 l 17
 12 18 l 1
 6 12 l 25
EndSplineSet
EndChar

StartChar: braceleft
Encoding: 123 123 86
Width: 16
VWidth: 0
Flags: HW
LayerCount: 2
Fore
SplineSet
0 12 m 29
 2 16 l 29
 6 16 l 25
 6 28 l 25
 10 32 l 25
 16 32 l 25
 14 28 l 25
 10 28 l 25
 10 16 l 25
 8 14 l 25
 10 12 l 25
 10 0 l 25
 16 0 l 25
 14 -4 l 25
 10 -4 l 25
 6 0 l 25
 6 12 l 25
 0 12 l 29
EndSplineSet
EndChar

StartChar: asterisk
Encoding: 42 42 88
Width: 24
VWidth: 0
Flags: HW
LayerCount: 2
Fore
SplineSet
4 22 m 25
 9 22 l 25
 20 4 l 25
 15 4 l 29
 4 22 l 25
15 22 m 25
 20 22 l 25
 9 4 l 29
 4 4 l 25
 15 22 l 25
4 15 m 25
 22 15 l 25
 20 11 l 25
 2 11 l 25
 4 15 l 25
EndSplineSet
EndChar

StartChar: at
Encoding: 64 64 89
Width: 36
VWidth: 0
Flags: HW
LayerCount: 2
Fore
SplineSet
26 4 m 25
 22 4 l 25
 22 5 l 25
 30 13 l 25
 30 22 l 25
 25 27 l 25
 15 27 l 25
 6 18 l 25
 6 7 l 25
 12 1 l 25
 27 1 l 29
 27 -2 l 29
 10 -2 l 25
 2 6 l 25
 2 19 l 25
 13 30 l 25
 27 30 l 25
 34 23 l 25
 34 12 l 25
 26 4 l 25
EndSplineSet
Refer: 8 97 N 1 0 0 1 8 4 2
EndChar

StartChar: question
Encoding: 63 63 90
Width: 20
VWidth: 0
Flags: HW
LayerCount: 2
Fore
SplineSet
18 25 m 25
 18 24 l 25
 8 14 l 25
 4 14 l 25
 4 15 l 25
 14 25 l 25
 18 25 l 25
6 24 m 25
 2 24 l 1
 2 25 l 9
 8 31 l 25
 12 31 l 25
 18 25 l 17
 18 24 l 1
 14 24 l 25
 10 28 l 25
 6 24 l 25
4 15 m 1
 8 15 l 25
 10 13 l 25
 12 15 l 25
 16 15 l 1
 16 14 l 9
 12 10 l 25
 8 10 l 25
 4 14 l 17
 4 15 l 1
10 0 m 25
 6 4 l 25
 10 8 l 25
 14 4 l 25
 10 0 l 25
EndSplineSet
EndChar

StartChar: asciicircum
Encoding: 94 94 91
Width: 22
VWidth: 0
Flags: HW
LayerCount: 2
Fore
SplineSet
10 30 m 25
 12 30 l 25
 20 19 l 25
 20 18 l 25
 18 18 l 25
 11 25 l 25
 4 18 l 25
 2 18 l 25
 2 19 l 25
 10 30 l 25
EndSplineSet
EndChar

StartChar: asciitilde
Encoding: 126 126 92
Width: 26
VWidth: 0
Flags: HW
LayerCount: 2
Fore
SplineSet
2 12 m 25
 7 17 l 25
 11 17 l 25
 17 11 l 25
 20 14 l 25
 24 14 l 25
 24 13 l 25
 19 8 l 25
 15 8 l 25
 9 14 l 25
 6 11 l 25
 2 11 l 25
 2 12 l 25
EndSplineSet
EndChar

StartChar: less
Encoding: 60 60 93
Width: 20
VWidth: 0
Flags: HW
LayerCount: 2
Fore
SplineSet
2 13 m 25
 2 15 l 25
 15 28 l 25
 18 28 l 25
 18 27 l 25
 7 14 l 25
 18 1 l 25
 18 0 l 25
 15 0 l 25
 2 13 l 25
EndSplineSet
EndChar

StartChar: dotlessi
Encoding: 305 305 95
Width: 14
VWidth: 0
Flags: HW
LayerCount: 2
Fore
SplineSet
2 17 m 17
 7 20 l 1
 9 20 l 9
 9 5 l 25
 12 5 l 25
 12 3 l 17
 7 0 l 1
 5 0 l 9
 5 15 l 25
 2 15 l 25
 2 17 l 17
EndSplineSet
EndChar

StartChar: Idotaccent
Encoding: 304 304 96
Width: 20
VWidth: 0
Flags: HW
LayerCount: 2
Fore
SplineSet
10 36 m 29
 13 33 l 29
 10 30 l 29
 7 33 l 29
 10 36 l 29
EndSplineSet
Refer: 38 73 N 1 0 0 1 0 0 2
EndChar

StartChar: thorn
Encoding: 254 254 97
Width: 22
VWidth: 0
Flags: HW
LayerCount: 2
Fore
SplineSet
8 7 m 25
 12 3 l 25
 16 7 l 25
 16 15 l 25
 14 17 l 25
 8 11 l 25
 8 7 l 25
10 0 m 17
 8 2 l 1
 8 -5 l 1
 12 -5 l 1
 12 -8 l 1
 2 -8 l 1
 2 -5 l 1
 4 -5 l 1
 4 23 l 5
 2 23 l 5
 2 26 l 5
 6 28 l 5
 8 28 l 5
 8 16 l 1
 12 20 l 9
 16 20 l 25
 20 16 l 25
 20 6 l 25
 14 0 l 25
 10 0 l 17
EndSplineSet
EndChar

StartChar: Thorn
Encoding: 222 222 98
Width: 24
VWidth: 0
Flags: HW
LayerCount: 2
Fore
SplineSet
8 12 m 25
 13 7 l 25
 18 12 l 25
 18 17 l 25
 14 21 l 25
 8 15 l 25
 8 12 l 25
11 4 m 17
 8 7 l 1
 8 3 l 1
 12 3 l 1
 12 0 l 1
 2 0 l 1
 2 3 l 1
 4 3 l 1
 4 23 l 1
 2 23 l 1
 2 26 l 1
 6 28 l 1
 8 28 l 1
 8 20 l 1
 12 24 l 9
 16 24 l 25
 22 18 l 25
 22 11 l 25
 15 4 l 25
 11 4 l 17
EndSplineSet
EndChar

StartChar: egrave
Encoding: 232 232 99
Width: 20
VWidth: 0
Flags: HW
LayerCount: 2
Fore
SplineSet
12 23 m 29
 8 23 l 29
 4 27 l 29
 4 28 l 29
 8 28 l 29
 12 24 l 29
 12 23 l 29
EndSplineSet
Refer: 25 101 N 1 0 0 1 0 0 2
EndChar

StartChar: eacute
Encoding: 233 233 100
Width: 20
VWidth: 0
Flags: HW
LayerCount: 2
Fore
SplineSet
8 23 m 29
 8 24 l 29
 12 28 l 29
 16 28 l 29
 16 27 l 29
 12 23 l 29
 8 23 l 29
EndSplineSet
Refer: 25 101 N 1 0 0 1 0 0 2
EndChar

StartChar: ecircumflex
Encoding: 234 234 101
Width: 20
VWidth: 0
Flags: HW
LayerCount: 2
Fore
SplineSet
8 28 m 29
 12 28 l 29
 17 23 l 29
 17 22 l 29
 13 22 l 29
 10 25 l 29
 7 22 l 29
 3 22 l 29
 3 23 l 29
 8 28 l 29
EndSplineSet
Refer: 25 101 N 1 0 0 1 0 0 2
EndChar

StartChar: edieresis
Encoding: 235 235 102
Width: 20
VWidth: 0
Flags: HW
LayerCount: 2
Fore
SplineSet
14 28 m 29
 17 25 l 29
 14 22 l 29
 11 25 l 29
 14 28 l 29
6 28 m 29
 9 25 l 29
 6 22 l 29
 3 25 l 29
 6 28 l 29
EndSplineSet
Refer: 25 101 N 1 0 0 1 0 0 2
EndChar

StartChar: ograve
Encoding: 242 242 103
Width: 20
VWidth: 0
Flags: HW
LayerCount: 2
Fore
SplineSet
12 23 m 29
 8 23 l 29
 4 27 l 29
 4 28 l 29
 8 28 l 29
 12 24 l 29
 12 23 l 29
EndSplineSet
Refer: 0 111 N 1 0 0 1 0 0 2
EndChar

StartChar: oacute
Encoding: 243 243 104
Width: 20
VWidth: 0
Flags: HW
LayerCount: 2
Fore
SplineSet
8 23 m 29
 8 24 l 29
 12 28 l 29
 16 28 l 29
 16 27 l 29
 12 23 l 29
 8 23 l 29
EndSplineSet
Refer: 0 111 N 1 0 0 1 0 0 2
EndChar

StartChar: ocircumflex
Encoding: 244 244 105
Width: 20
VWidth: 0
Flags: HW
LayerCount: 2
Fore
SplineSet
8 28 m 29
 12 28 l 29
 17 23 l 29
 17 22 l 29
 13 22 l 29
 10 25 l 29
 7 22 l 29
 3 22 l 29
 3 23 l 29
 8 28 l 29
EndSplineSet
Refer: 0 111 N 1 0 0 1 0 0 2
EndChar

StartChar: otilde
Encoding: 245 245 106
Width: 20
VWidth: 0
Flags: HW
LayerCount: 2
Fore
SplineSet
10 28 m 29
 12 26 l 29
 14 28 l 29
 18 28 l 29
 18 27 l 29
 14 23 l 29
 10 23 l 29
 8 25 l 29
 6 23 l 29
 2 23 l 29
 2 24 l 29
 6 28 l 29
 10 28 l 29
EndSplineSet
Refer: 0 111 N 1 0 0 1 0 0 2
EndChar

StartChar: odieresis
Encoding: 246 246 107
Width: 20
VWidth: 0
Flags: HW
LayerCount: 2
Fore
SplineSet
14 28 m 29
 17 25 l 29
 14 22 l 29
 11 25 l 29
 14 28 l 29
6 28 m 29
 9 25 l 29
 6 22 l 29
 3 25 l 29
 6 28 l 29
EndSplineSet
Refer: 0 111 N 1 0 0 1 0 0 2
EndChar

StartChar: ntilde
Encoding: 241 241 108
Width: 24
VWidth: 0
Flags: HW
LayerCount: 2
Fore
SplineSet
12 28 m 29
 14 26 l 29
 16 28 l 29
 20 28 l 29
 20 27 l 29
 16 23 l 29
 12 23 l 29
 10 25 l 29
 8 23 l 29
 4 23 l 29
 4 24 l 29
 8 28 l 29
 12 28 l 29
EndSplineSet
Refer: 20 110 N 1 0 0 1 0 0 2
EndChar

StartChar: ugrave
Encoding: 249 249 109
Width: 24
VWidth: 0
Flags: HW
LayerCount: 2
Fore
SplineSet
14 23 m 29
 10 23 l 29
 6 27 l 29
 6 28 l 29
 10 28 l 29
 14 24 l 29
 14 23 l 29
EndSplineSet
Refer: 17 117 N 1 0 0 1 0 0 2
EndChar

StartChar: uacute
Encoding: 250 250 110
Width: 24
VWidth: 0
Flags: HW
LayerCount: 2
Fore
SplineSet
10 23 m 29
 10 24 l 29
 14 28 l 29
 18 28 l 29
 18 27 l 29
 14 23 l 29
 10 23 l 29
EndSplineSet
Refer: 17 117 N 1 0 0 1 0 0 2
EndChar

StartChar: ucircumflex
Encoding: 251 251 111
Width: 24
VWidth: 0
Flags: HW
LayerCount: 2
Fore
SplineSet
10 28 m 29
 14 28 l 29
 19 23 l 29
 19 22 l 29
 15 22 l 29
 12 25 l 29
 9 22 l 29
 5 22 l 29
 5 23 l 29
 10 28 l 29
EndSplineSet
Refer: 17 117 N 1 0 0 1 0 0 2
EndChar

StartChar: udieresis
Encoding: 252 252 112
Width: 24
VWidth: 0
Flags: HW
LayerCount: 2
Fore
SplineSet
16 28 m 29
 19 25 l 29
 16 22 l 29
 13 25 l 29
 16 28 l 29
8 28 m 29
 11 25 l 29
 8 22 l 29
 5 25 l 29
 8 28 l 29
EndSplineSet
Refer: 17 117 N 1 0 0 1 0 0 2
EndChar

StartChar: yacute
Encoding: 253 253 113
Width: 22
VWidth: 0
Flags: HW
LayerCount: 2
Fore
SplineSet
10 23 m 29
 10 24 l 29
 14 28 l 29
 18 28 l 29
 18 27 l 29
 14 23 l 29
 10 23 l 29
EndSplineSet
Refer: 18 121 N 1 0 0 1 0 0 2
EndChar

StartChar: igrave
Encoding: 236 236 114
Width: 14
VWidth: 0
Flags: HW
LayerCount: 2
Fore
SplineSet
9 23 m 29
 5 23 l 29
 1 27 l 29
 1 28 l 29
 5 28 l 29
 9 24 l 29
 9 23 l 29
EndSplineSet
Refer: 95 305 N 1 0 0 1 0 0 2
EndChar

StartChar: iacute
Encoding: 237 237 115
Width: 14
VWidth: 0
Flags: HW
LayerCount: 2
Fore
SplineSet
5 23 m 29
 5 24 l 29
 9 28 l 29
 13 28 l 29
 13 27 l 29
 9 23 l 29
 5 23 l 29
EndSplineSet
Refer: 95 305 N 1 0 0 1 0 0 2
EndChar

StartChar: icircumflex
Encoding: 238 238 116
Width: 14
VWidth: 0
Flags: HW
LayerCount: 2
Fore
SplineSet
5 28 m 29
 9 28 l 29
 14 23 l 29
 14 22 l 29
 10 22 l 29
 7 25 l 29
 4 22 l 29
 0 22 l 29
 0 23 l 29
 5 28 l 29
EndSplineSet
Refer: 95 305 N 1 0 0 1 0 0 2
EndChar

StartChar: idieresis
Encoding: 239 239 117
Width: 14
VWidth: 0
Flags: HW
LayerCount: 2
Fore
SplineSet
11 28 m 29
 14 25 l 29
 11 22 l 29
 8 25 l 29
 11 28 l 29
3 28 m 29
 6 25 l 29
 3 22 l 29
 0 25 l 29
 3 28 l 29
EndSplineSet
Refer: 95 305 N 1 0 0 1 0 0 2
EndChar

StartChar: agrave
Encoding: 224 224 118
Width: 22
VWidth: 0
Flags: HW
LayerCount: 2
Fore
SplineSet
14 23 m 29
 10 23 l 29
 6 27 l 29
 6 28 l 29
 10 28 l 29
 14 24 l 29
 14 23 l 29
EndSplineSet
Refer: 8 97 N 1 0 0 1 0 0 2
EndChar

StartChar: aacute
Encoding: 225 225 119
Width: 22
VWidth: 0
Flags: HW
LayerCount: 2
Fore
SplineSet
10 23 m 29
 10 24 l 29
 14 28 l 29
 18 28 l 29
 18 27 l 29
 14 23 l 29
 10 23 l 29
EndSplineSet
Refer: 8 97 N 1 0 0 1 0 0 2
EndChar

StartChar: acircumflex
Encoding: 226 226 120
Width: 22
VWidth: 0
Flags: HW
LayerCount: 2
Fore
SplineSet
10 28 m 29
 14 28 l 29
 19 23 l 29
 19 22 l 29
 15 22 l 29
 12 25 l 29
 9 22 l 29
 5 22 l 29
 5 23 l 29
 10 28 l 29
EndSplineSet
Refer: 8 97 N 1 0 0 1 0 0 2
EndChar

StartChar: atilde
Encoding: 227 227 121
Width: 22
VWidth: 0
Flags: HW
LayerCount: 2
Fore
SplineSet
12 28 m 29
 14 26 l 29
 16 28 l 29
 20 28 l 29
 20 27 l 29
 16 23 l 29
 12 23 l 29
 10 25 l 29
 8 23 l 29
 4 23 l 29
 4 24 l 29
 8 28 l 29
 12 28 l 29
EndSplineSet
Refer: 8 97 N 1 0 0 1 0 0 2
EndChar

StartChar: adieresis
Encoding: 228 228 122
Width: 22
VWidth: 0
Flags: HW
LayerCount: 2
Fore
SplineSet
16 28 m 29
 19 25 l 29
 16 22 l 29
 13 25 l 29
 16 28 l 29
8 28 m 29
 11 25 l 29
 8 22 l 29
 5 25 l 29
 8 28 l 29
EndSplineSet
Refer: 8 97 N 1 0 0 1 0 0 2
EndChar

StartChar: aring
Encoding: 229 229 123
Width: 22
VWidth: 0
Flags: HW
LayerCount: 2
Fore
SplineSet
14 25 m 29
 13 24 l 29
 14 23 l 29
 15 24 l 29
 14 25 l 29
13 28 m 5
 15 28 l 5
 18 25 l 5
 18 23 l 5
 15 20 l 5
 13 20 l 13
 10 23 l 21
 10 25 l 5
 13 28 l 5
EndSplineSet
Refer: 8 97 N 1 0 0 1 0 0 2
EndChar

StartChar: ae
Encoding: 230 230 124
Width: 32
VWidth: 0
Flags: HW
LayerCount: 2
Fore
SplineSet
6 5 m 25
 8 3 l 25
 14 9 l 25
 14 17 l 25
 12 17 l 25
 6 11 l 25
 6 5 l 25
10 0 m 9
 6 0 l 25
 2 4 l 25
 2 12 l 25
 10 20 l 25
 18 20 l 17
 18 8 l 1
 10 0 l 9
EndSplineSet
Refer: 25 101 N 1 0 0 1 12 0 2
EndChar

StartChar: Egrave
Encoding: 200 200 125
Width: 28
VWidth: 0
Flags: HW
LayerCount: 2
Fore
SplineSet
16 31 m 29
 12 31 l 29
 8 35 l 29
 8 36 l 29
 12 36 l 29
 16 32 l 29
 16 31 l 29
EndSplineSet
Refer: 31 69 N 1 0 0 1 0 0 2
EndChar

StartChar: Eacute
Encoding: 201 201 126
Width: 28
VWidth: 0
Flags: HW
LayerCount: 2
Fore
SplineSet
13 31 m 29
 13 32 l 29
 17 36 l 29
 21 36 l 29
 21 35 l 29
 17 31 l 29
 13 31 l 29
EndSplineSet
Refer: 31 69 N 1 0 0 1 0 0 2
EndChar

StartChar: Ecircumflex
Encoding: 202 202 127
Width: 28
VWidth: 0
Flags: HW
LayerCount: 2
Fore
SplineSet
13 36 m 29
 17 36 l 29
 22 31 l 29
 22 30 l 29
 18 30 l 29
 15 33 l 29
 12 30 l 29
 8 30 l 29
 8 31 l 29
 13 36 l 29
EndSplineSet
Refer: 31 69 N 1 0 0 1 0 0 2
EndChar

StartChar: Edieresis
Encoding: 203 203 128
Width: 28
VWidth: 0
Flags: HW
LayerCount: 2
Fore
SplineSet
19 36 m 29
 22 33 l 29
 19 30 l 29
 16 33 l 29
 19 36 l 29
11 36 m 29
 14 33 l 29
 11 30 l 29
 8 33 l 29
 11 36 l 29
EndSplineSet
Refer: 31 69 N 1 0 0 1 0 0 2
EndChar

StartChar: Ugrave
Encoding: 217 217 129
Width: 28
VWidth: 0
Flags: HW
LayerCount: 2
Fore
SplineSet
16 31 m 29
 12 31 l 29
 8 35 l 29
 8 36 l 29
 12 36 l 29
 16 32 l 29
 16 31 l 29
EndSplineSet
Refer: 5 85 N 1 0 0 1 0 0 2
EndChar

StartChar: Uacute
Encoding: 218 218 130
Width: 28
VWidth: 0
Flags: HW
LayerCount: 2
Fore
SplineSet
12 31 m 29
 12 32 l 29
 16 36 l 29
 20 36 l 29
 20 35 l 29
 16 31 l 29
 12 31 l 29
EndSplineSet
Refer: 5 85 N 1 0 0 1 0 0 2
EndChar

StartChar: Ucircumflex
Encoding: 219 219 131
Width: 28
VWidth: 0
Flags: HW
LayerCount: 2
Fore
SplineSet
12 36 m 29
 16 36 l 29
 21 31 l 29
 21 30 l 29
 17 30 l 29
 14 33 l 29
 11 30 l 29
 7 30 l 29
 7 31 l 29
 12 36 l 29
EndSplineSet
Refer: 5 85 N 1 0 0 1 0 0 2
EndChar

StartChar: Udieresis
Encoding: 220 220 132
Width: 28
VWidth: 0
Flags: HW
LayerCount: 2
Fore
SplineSet
18 36 m 29
 21 33 l 29
 18 30 l 29
 15 33 l 29
 18 36 l 29
10 36 m 29
 13 33 l 29
 10 30 l 29
 7 33 l 29
 10 36 l 29
EndSplineSet
Refer: 5 85 N 1 0 0 1 0 0 2
EndChar

StartChar: Igrave
Encoding: 204 204 133
Width: 20
VWidth: 0
Flags: HW
LayerCount: 2
Fore
SplineSet
12 31 m 29
 8 31 l 29
 4 35 l 29
 4 36 l 29
 8 36 l 29
 12 32 l 29
 12 31 l 29
EndSplineSet
Refer: 38 73 N 1 0 0 1 0 0 2
EndChar

StartChar: Iacute
Encoding: 205 205 134
Width: 20
VWidth: 0
Flags: HW
LayerCount: 2
Fore
SplineSet
8 31 m 29
 8 32 l 29
 12 36 l 29
 16 36 l 29
 16 35 l 29
 12 31 l 29
 8 31 l 29
EndSplineSet
Refer: 38 73 N 1 0 0 1 0 0 2
EndChar

StartChar: Icircumflex
Encoding: 206 206 135
Width: 20
VWidth: 0
Flags: HW
LayerCount: 2
Fore
SplineSet
8 36 m 29
 12 36 l 29
 17 31 l 29
 17 30 l 29
 13 30 l 29
 10 33 l 29
 7 30 l 29
 3 30 l 29
 3 31 l 29
 8 36 l 29
EndSplineSet
Refer: 38 73 N 1 0 0 1 0 0 2
EndChar

StartChar: Idieresis
Encoding: 207 207 136
Width: 20
VWidth: 0
Flags: HW
LayerCount: 2
Fore
SplineSet
14 36 m 29
 17 33 l 29
 14 30 l 29
 11 33 l 29
 14 36 l 29
6 36 m 29
 9 33 l 29
 6 30 l 29
 3 33 l 29
 6 36 l 29
EndSplineSet
Refer: 38 73 N 1 0 0 1 0 0 2
EndChar

StartChar: Eth
Encoding: 208 208 137
Width: 26
VWidth: 0
Flags: HW
LayerCount: 2
Fore
SplineSet
2 12 m 25
 4 16 l 25
 16 16 l 29
 14 12 l 29
 2 12 l 25
EndSplineSet
Refer: 9 68 N 1 0 0 1 0 0 2
EndChar

StartChar: Ograve
Encoding: 210 210 138
Width: 26
VWidth: 0
Flags: HW
LayerCount: 2
Fore
SplineSet
15 31 m 29
 11 31 l 29
 7 35 l 29
 7 36 l 29
 11 36 l 29
 15 32 l 29
 15 31 l 29
EndSplineSet
Refer: 4 79 N 1 0 0 1 0 0 2
EndChar

StartChar: Oacute
Encoding: 211 211 139
Width: 26
VWidth: 0
Flags: HW
LayerCount: 2
Fore
SplineSet
11 31 m 29
 11 32 l 29
 15 36 l 29
 19 36 l 29
 19 35 l 29
 15 31 l 29
 11 31 l 29
EndSplineSet
Refer: 4 79 N 1 0 0 1 0 0 2
EndChar

StartChar: Ocircumflex
Encoding: 212 212 140
Width: 26
VWidth: 0
Flags: HW
LayerCount: 2
Fore
SplineSet
11 36 m 29
 15 36 l 29
 20 31 l 29
 20 30 l 29
 16 30 l 29
 13 33 l 29
 10 30 l 29
 6 30 l 29
 6 31 l 29
 11 36 l 29
EndSplineSet
Refer: 4 79 N 1 0 0 1 0 0 2
EndChar

StartChar: Otilde
Encoding: 213 213 141
Width: 26
VWidth: 0
Flags: HW
LayerCount: 2
Fore
SplineSet
13 36 m 29
 15 34 l 29
 17 36 l 29
 21 36 l 29
 21 35 l 29
 17 31 l 29
 13 31 l 29
 11 33 l 29
 9 31 l 29
 5 31 l 29
 5 32 l 29
 9 36 l 29
 13 36 l 29
EndSplineSet
Refer: 4 79 N 1 0 0 1 0 0 2
EndChar

StartChar: Odieresis
Encoding: 214 214 142
Width: 26
VWidth: 0
Flags: HW
LayerCount: 2
Fore
SplineSet
17 36 m 29
 20 33 l 29
 17 30 l 29
 14 33 l 29
 17 36 l 29
9 36 m 29
 12 33 l 29
 9 30 l 29
 6 33 l 29
 9 36 l 29
EndSplineSet
Refer: 4 79 N 1 0 0 1 0 0 2
EndChar

StartChar: Ntilde
Encoding: 209 209 143
Width: 28
VWidth: 0
Flags: HW
LayerCount: 2
Fore
SplineSet
15 36 m 29
 17 34 l 29
 19 36 l 29
 23 36 l 29
 23 35 l 29
 19 31 l 29
 15 31 l 29
 13 33 l 29
 11 31 l 29
 7 31 l 29
 7 32 l 29
 11 36 l 29
 15 36 l 29
EndSplineSet
Refer: 50 78 N 1 0 0 1 0 0 2
EndChar

StartChar: Agrave
Encoding: 192 192 144
Width: 28
VWidth: 0
Flags: HW
LayerCount: 2
Fore
SplineSet
19 31 m 29
 15 31 l 29
 11 35 l 29
 11 36 l 29
 15 36 l 29
 19 32 l 29
 19 31 l 29
EndSplineSet
Refer: 52 65 N 1 0 0 1 0 0 2
EndChar

StartChar: Aacute
Encoding: 193 193 145
Width: 28
VWidth: 0
Flags: HW
LayerCount: 2
Fore
SplineSet
15 31 m 29
 15 32 l 29
 19 36 l 29
 23 36 l 29
 23 35 l 29
 19 31 l 29
 15 31 l 29
EndSplineSet
Refer: 52 65 N 1 0 0 1 0 0 2
EndChar

StartChar: Acircumflex
Encoding: 194 194 146
Width: 28
VWidth: 0
Flags: HW
LayerCount: 2
Fore
SplineSet
15 36 m 29
 19 36 l 29
 24 31 l 29
 24 30 l 29
 20 30 l 29
 17 33 l 29
 14 30 l 29
 10 30 l 29
 10 31 l 29
 15 36 l 29
EndSplineSet
Refer: 52 65 N 1 0 0 1 0 0 2
EndChar

StartChar: Atilde
Encoding: 195 195 147
Width: 28
VWidth: 0
Flags: HW
LayerCount: 2
Fore
SplineSet
17 36 m 29
 19 34 l 29
 21 36 l 29
 25 36 l 29
 25 35 l 29
 21 31 l 29
 17 31 l 29
 15 33 l 29
 13 31 l 29
 9 31 l 29
 9 32 l 29
 13 36 l 29
 17 36 l 29
EndSplineSet
Refer: 52 65 N 1 0 0 1 0 0 2
EndChar

StartChar: Adieresis
Encoding: 196 196 148
Width: 28
VWidth: 0
Flags: HW
LayerCount: 2
Fore
SplineSet
21 36 m 29
 24 33 l 29
 21 30 l 29
 18 33 l 29
 21 36 l 29
13 36 m 29
 16 33 l 29
 13 30 l 29
 10 33 l 29
 13 36 l 29
EndSplineSet
Refer: 52 65 N 1 0 0 1 0 0 2
EndChar

StartChar: Aring
Encoding: 197 197 149
Width: 28
VWidth: 0
Flags: HW
LayerCount: 2
Fore
SplineSet
19 33 m 29
 18 32 l 29
 19 31 l 29
 20 32 l 29
 19 33 l 29
18 36 m 5
 20 36 l 5
 23 33 l 5
 23 31 l 5
 20 28 l 5
 18 28 l 13
 15 31 l 21
 15 33 l 5
 18 36 l 5
EndSplineSet
Refer: 52 65 N 1 0 0 1 0 0 2
EndChar

StartChar: Yacute
Encoding: 221 221 150
Width: 26
VWidth: 0
Flags: HW
LayerCount: 2
Fore
SplineSet
12 31 m 29
 12 32 l 29
 16 36 l 29
 20 36 l 29
 20 35 l 29
 16 31 l 29
 12 31 l 29
EndSplineSet
Refer: 35 89 N 1 0 0 1 0 0 2
EndChar

StartChar: Oslash
Encoding: 216 216 151
Width: 26
VWidth: 0
Flags: HW
LayerCount: 2
Fore
SplineSet
4 -2 m 21
 4 -1 l 5
 18 30 l 13
 22 30 l 21
 22 29 l 5
 8 -2 l 13
 4 -2 l 21
EndSplineSet
Refer: 4 79 N 1 0 0 1 0 0 2
EndChar

StartChar: oslash
Encoding: 248 248 152
Width: 20
VWidth: 0
Flags: HW
LayerCount: 2
Fore
SplineSet
1 -2 m 17
 1 -1 l 1
 15 22 l 13
 19 22 l 21
 19 21 l 5
 5 -2 l 9
 1 -2 l 17
EndSplineSet
Refer: 0 111 N 1 0 0 1 0 0 2
EndChar

StartChar: divide
Encoding: 247 247 153
Width: 24
VWidth: 0
Flags: HW
LayerCount: 2
Fore
SplineSet
12 18 m 29
 8 22 l 29
 12 26 l 29
 16 22 l 29
 12 18 l 29
12 2 m 25
 8 6 l 25
 12 10 l 25
 16 6 l 25
 12 2 l 25
4 16 m 25
 22 16 l 25
 20 12 l 25
 2 12 l 25
 4 16 l 25
EndSplineSet
EndChar

StartChar: multiply
Encoding: 215 215 154
Width: 24
VWidth: 0
Flags: HW
LayerCount: 2
Fore
SplineSet
3 22 m 25
 8 22 l 25
 21 4 l 29
 16 4 l 29
 3 22 l 25
16 22 m 25
 21 22 l 25
 8 4 l 29
 3 4 l 29
 16 22 l 25
EndSplineSet
EndChar

StartChar: macron
Encoding: 175 175 155
Width: 20
VWidth: 0
Flags: HW
LayerCount: 2
Fore
SplineSet
4 28 m 29
 18 28 l 29
 16 24 l 29
 2 24 l 29
 4 28 l 29
EndSplineSet
EndChar

StartChar: plusminus
Encoding: 177 177 156
Width: 24
VWidth: 0
Flags: HW
LayerCount: 2
Fore
SplineSet
4 5 m 29
 22 5 l 29
 20 1 l 29
 2 1 l 29
 4 5 l 29
EndSplineSet
Refer: 68 43 S 1 0 0 1 0 4 2
EndChar

StartChar: guillemotleft
Encoding: 171 171 157
Width: 24
VWidth: 0
Flags: HW
LayerCount: 2
Fore
SplineSet
11 10 m 29
 11 12 l 29
 19 20 l 29
 22 20 l 29
 22 19 l 29
 16 11 l 29
 22 3 l 29
 22 2 l 29
 19 2 l 29
 11 10 l 29
2 10 m 29
 2 12 l 29
 10 20 l 29
 13 20 l 29
 13 19 l 29
 7 11 l 29
 13 3 l 29
 13 2 l 29
 10 2 l 29
 2 10 l 29
EndSplineSet
EndChar

StartChar: periodcentered
Encoding: 183 183 159
Width: 12
VWidth: 0
Flags: HW
LayerCount: 2
Fore
SplineSet
6 8 m 29
 2 12 l 29
 6 16 l 29
 10 12 l 29
 6 8 l 29
EndSplineSet
EndChar

StartChar: sterling
Encoding: 163 163 160
Width: 28
VWidth: 0
Flags: HW
LayerCount: 2
Fore
SplineSet
2 1 m 1
 6 9 l 1
 6 21 l 9
 13 28 l 17
 17 28 l 1
 24 21 l 5
 24 20 l 5
 20 20 l 5
 15 25 l 1
 10 20 l 1
 10 9 l 1
 6 1 l 1
 2 1 l 1
26 6 m 25
 20 0 l 25
 16 0 l 25
 11 5 l 25
 6 0 l 25
 2 0 l 25
 2 1 l 25
 9 8 l 25
 13 8 l 25
 18 3 l 25
 22 7 l 25
 26 7 l 25
 26 6 l 25
EndSplineSet
Refer: 66 45 N 1 0 0 0.75 0 1.75 2
Refer: 66 45 N 1 0 0 0.75 0 6.75 2
EndChar

StartChar: cent
Encoding: 162 162 161
Width: 20
VWidth: 0
Flags: HW
LayerCount: 2
Fore
SplineSet
8 -8 m 29
 8 26.0771 l 25
 12 28 l 25
 12 -6 l 29
 8 -8 l 29
EndSplineSet
Refer: 2 99 N 1 0 0 1 0 0 2
EndChar

StartChar: brokenbar
Encoding: 166 166 162
Width: 8
VWidth: 0
Flags: HW
LayerCount: 2
Fore
SplineSet
2 16.8457 m 25
 2 35.9229 l 25
 6 37.8457 l 25
 6 18.8457 l 25
 2 16.8457 l 25
2 -6 m 25
 2 13.0771 l 25
 6 15 l 29
 6 -4 l 25
 2 -6 l 25
EndSplineSet
EndChar

StartChar: dieresis
Encoding: 168 168 163
Width: 18
VWidth: 0
Flags: HW
LayerCount: 2
Fore
SplineSet
13 28 m 25
 16 25 l 25
 13 22 l 25
 10 25 l 25
 13 28 l 25
5 28 m 25
 8 25 l 25
 5 22 l 25
 2 25 l 25
 5 28 l 25
EndSplineSet
EndChar

StartChar: logicalnot
Encoding: 172 172 164
Width: 24
VWidth: 0
Flags: HW
LayerCount: 2
Fore
SplineSet
4 19 m 25
 22 19 l 25
 22 9 l 21
 18 7 l 5
 18 15 l 1
 2 15 l 9
 4 19 l 25
EndSplineSet
EndChar

StartChar: acute
Encoding: 180 180 168
Width: 12
VWidth: 0
Flags: HW
LayerCount: 2
Fore
SplineSet
2 16 m 29
 2 27 l 25
 7 30 l 25
 10 25 l 25
 2 16 l 29
EndSplineSet
EndChar

StartChar: uni00B5
Encoding: 181 181 169
Width: 24
VWidth: 0
Flags: HW
LayerCount: 2
Fore
SplineSet
9 2 m 1
 8 3 l 1
 8 -8 l 1
 4 -8 l 1
 4 15 l 1
 2 15 l 1
 2 18 l 1
 6 20 l 1
 8 20 l 9
 8 8 l 25
 11 5 l 25
 16 10 l 17
 16 15 l 1
 14 15 l 1
 14 18 l 1
 18 20 l 1
 20 20 l 1
 20 5 l 1
 22 5 l 1
 22 2 l 1
 18 0 l 1
 16 0 l 9
 16 5 l 17
 13 2 l 1
 9 2 l 1
EndSplineSet
EndChar

StartChar: ydieresis
Encoding: 255 255 170
Width: 22
VWidth: 0
Flags: HW
LayerCount: 2
Fore
SplineSet
16 28 m 29
 19 25 l 29
 16 22 l 29
 13 25 l 29
 16 28 l 29
8 28 m 29
 11 25 l 29
 8 22 l 29
 5 25 l 29
 8 28 l 29
EndSplineSet
Refer: 18 121 N 1 0 0 1 0 0 2
EndChar

StartChar: uni00B9
Encoding: 185 185 171
Width: 18
VWidth: 0
Flags: HW
LayerCount: 2
Fore
SplineSet
3 12 m 25
 3 15 l 25
 7 16 l 17
 7 27 l 1
 3 27 l 1
 3 29 l 1
 9 32 l 1
 11 32 l 9
 11 16 l 25
 15 15 l 25
 15 12 l 25
 3 12 l 25
EndSplineSet
EndChar

StartChar: uni00B2
Encoding: 178 178 172
Width: 18
VWidth: 0
Flags: HW
LayerCount: 2
Fore
SplineSet
7 32 m 29
 11 32 l 29
 16 27 l 29
 16 23 l 29
 5 12 l 29
 2 12 l 29
 2 14 l 29
 13 25 l 29
 9 29 l 29
 6 26 l 29
 2 26 l 29
 2 27 l 29
 7 32 l 29
2 14 m 29
 5 17 l 29
 9 17 l 29
 11 15 l 29
 13 17 l 29
 17 17 l 29
 17 16 l 29
 13 12 l 29
 9 12 l 29
 7 14 l 29
 5 12 l 29
 2 12 l 29
 2 14 l 29
EndSplineSet
EndChar

StartChar: uni00B3
Encoding: 179 179 173
Width: 18
VWidth: 0
Flags: HW
LayerCount: 2
Fore
SplineSet
4 29 m 5
 4 32 l 5
 15 32 l 13
 15 28 l 21
 12 25 l 5
 12 23 l 13
 7 23 l 29
 7 25 l 29
 11 29 l 21
 4 29 l 5
10 23 m 5
 10 24 l 13
 12 26 l 29
 16 22 l 29
 16 17 l 29
 11 12 l 29
 7 12 l 29
 2 17 l 29
 2 20 l 21
 6 20 l 13
 6 18 l 29
 9 15 l 29
 12 18 l 29
 12 21 l 29
 10 23 l 5
EndSplineSet
EndChar

StartChar: ccedilla
Encoding: 231 231 174
Width: 20
VWidth: 0
Flags: HW
LayerCount: 2
Fore
SplineSet
10 -2 m 21
 7 1 l 5
 7 2 l 5
 10 2 l 13
 18 -6 l 29
 18 -7 l 29
 14 -7 l 29
 12 -5 l 29
 10 -7 l 29
 6 -7 l 29
 2 -3 l 29
 2 -2 l 29
 6 -2 l 29
 8 -4 l 29
 10 -2 l 21
EndSplineSet
Refer: 2 99 N 1 0 0 1 0 0 2
EndChar

StartChar: Ccedilla
Encoding: 199 199 175
Width: 24
VWidth: 0
Flags: HW
LayerCount: 2
Fore
SplineSet
12 -1 m 21
 9 2 l 5
 9 3 l 5
 12 3 l 13
 20 -5 l 29
 20 -6 l 29
 16 -6 l 29
 14 -4 l 29
 12 -6 l 29
 8 -6 l 29
 4 -2 l 29
 4 -1 l 29
 8 -1 l 29
 10 -3 l 29
 12 -1 l 21
EndSplineSet
Refer: 3 67 N 1 0 0 1 0 0 2
EndChar

StartChar: degree
Encoding: 176 176 176
Width: 18
VWidth: 0
Flags: HW
LayerCount: 2
Fore
SplineSet
9 25 m 29
 5 21 l 29
 9 17 l 29
 13 21 l 29
 9 25 l 29
2 23 m 29
 7 28 l 29
 11 28 l 29
 16 23 l 29
 16 19 l 29
 11 14 l 29
 7 14 l 29
 2 19 l 29
 2 23 l 29
EndSplineSet
EndChar

StartChar: ordfeminine
Encoding: 170 170 177
Width: 20
VWidth: 0
Flags: HW
LayerCount: 2
Fore
SplineSet
2 13 m 29
 18 13 l 29
 18 10 l 29
 2 10 l 29
 2 13 l 29
6 21 m 25
 8 19 l 25
 12 23 l 25
 12 29 l 25
 10 29 l 25
 6 25 l 25
 6 21 l 25
16 21 m 1
 18 21 l 1
 18 18 l 1
 14 16 l 1
 12 16 l 1
 12 18 l 1
 10 16 l 9
 6 16 l 25
 2 20 l 25
 2 26 l 25
 8 32 l 25
 16 32 l 25
 16 21 l 1
EndSplineSet
EndChar

StartChar: ordmasculine
Encoding: 186 186 178
Width: 20
VWidth: 0
Flags: HW
LayerCount: 2
Fore
SplineSet
2 13 m 25
 18 13 l 25
 18 10 l 25
 2 10 l 25
 2 13 l 25
6 23 m 25
 10 19 l 25
 14 23 l 25
 14 25 l 25
 10 29 l 25
 6 25 l 25
 6 23 l 25
8 16 m 25
 2 22 l 25
 2 26 l 25
 8 32 l 25
 12 32 l 25
 18 26 l 25
 18 22 l 25
 12 16 l 25
 8 16 l 25
EndSplineSet
EndChar

StartChar: onehalf
Encoding: 189 189 179
Width: 36
VWidth: 0
Flags: HW
LayerCount: 2
Fore
SplineSet
5 -2 m 17
 5 -1 l 1
 27 30 l 9
 31 30 l 17
 31 29 l 1
 9 -2 l 9
 5 -2 l 17
24 12 m 25
 28 12 l 25
 33 7 l 25
 33 3 l 25
 22 -8 l 25
 19 -8 l 25
 19 -6 l 25
 30 5 l 25
 26 9 l 25
 23 6 l 25
 19 6 l 25
 19 7 l 25
 24 12 l 25
19 -6 m 25
 22 -3 l 25
 26 -3 l 25
 28 -5 l 25
 30 -3 l 25
 34 -3 l 25
 34 -4 l 25
 30 -8 l 25
 26 -8 l 25
 24 -6 l 25
 22 -8 l 25
 19 -8 l 25
 19 -6 l 25
3 16 m 25
 3 19 l 25
 7 20 l 17
 7 31 l 1
 3 31 l 1
 3 33 l 1
 9 36 l 1
 11 36 l 9
 11 20 l 25
 15 19 l 25
 15 16 l 25
 3 16 l 25
EndSplineSet
EndChar

StartChar: cedilla
Encoding: 184 184 180
Width: 20
VWidth: 0
Flags: HW
LayerCount: 2
Fore
SplineSet
10 5 m 17
 7 8 l 1
 7 9 l 1
 10 9 l 9
 18 1 l 25
 18 0 l 25
 14 0 l 25
 12 2 l 25
 10 0 l 25
 6 0 l 25
 2 4 l 25
 2 5 l 25
 6 5 l 25
 8 3 l 25
 10 5 l 17
EndSplineSet
EndChar

StartChar: onequarter
Encoding: 188 188 181
Width: 36
VWidth: 0
Flags: HW
LayerCount: 2
Fore
SplineSet
34 1 m 25
 34 -2 l 25
 20 -2 l 17
 20 0 l 1
 24 7 l 1
 24 12 l 9
 28 12 l 17
 28 6 l 1
 25 1 l 9
 34 1 l 25
32 -8 m 25
 28 -8 l 25
 28 2 l 25
 32 6 l 25
 32 -8 l 25
5 -2 m 17
 5 -1 l 1
 27 30 l 9
 31 30 l 17
 31 29 l 1
 9 -2 l 9
 5 -2 l 17
3 16 m 25
 3 19 l 25
 7 20 l 17
 7 31 l 1
 3 31 l 1
 3 33 l 1
 9 36 l 1
 11 36 l 9
 11 20 l 25
 15 19 l 25
 15 16 l 25
 3 16 l 25
EndSplineSet
EndChar

StartChar: threequarters
Encoding: 190 190 182
Width: 36
VWidth: 0
Flags: HW
LayerCount: 2
Fore
SplineSet
4 33 m 1
 4 36 l 1
 15 36 l 9
 15 32 l 17
 12 29 l 1
 12 27 l 9
 7 27 l 25
 7 29 l 25
 11 33 l 17
 4 33 l 1
10 27 m 1
 10 28 l 9
 12 30 l 25
 16 26 l 25
 16 21 l 25
 11 16 l 25
 7 16 l 25
 2 21 l 25
 2 24 l 17
 6 24 l 9
 6 22 l 25
 9 19 l 25
 12 22 l 25
 12 25 l 25
 10 27 l 1
34 1 m 25
 34 -2 l 25
 20 -2 l 17
 20 0 l 1
 24 7 l 1
 24 12 l 13
 28 12 l 21
 28 6 l 1
 25 1 l 9
 34 1 l 25
32 -8 m 25
 28 -8 l 25
 28 2 l 25
 32 6 l 25
 32 -8 l 25
5 -2 m 17
 5 -1 l 1
 27 30 l 9
 31 30 l 17
 31 29 l 1
 9 -2 l 9
 5 -2 l 17
EndSplineSet
EndChar

StartChar: AE
Encoding: 198 198 183
Width: 40
VWidth: 0
Flags: HW
LayerCount: 2
Fore
SplineSet
23 25 m 17
 23 15 l 1
 32 15 l 1
 32 12 l 1
 23 12 l 1
 23 3 l 1
 31 3 l 1
 34 6 l 1
 38 6 l 9
 38 5 l 17
 33 0 l 1
 19 0 l 9
 19 28 l 25
 33 28 l 29
 38 23 l 29
 38 22 l 29
 34 22 l 29
 31 25 l 29
 23 25 l 17
10 15 m 25
 19 15 l 25
 19 25 l 25
 17 25 l 25
 10 18 l 25
 10 15 l 25
2 0 m 25
 2 1 l 25
 6 5 l 25
 6 19 l 25
 15 28 l 25
 26 28 l 25
 26 25 l 25
 23 25 l 25
 23 3 l 25
 26 3 l 25
 26 0 l 25
 19 0 l 25
 19 12 l 25
 10 12 l 25
 10 4 l 25
 6 0 l 25
 2 0 l 25
EndSplineSet
EndChar

StartChar: eth
Encoding: 240 240 184
Width: 22
VWidth: 0
Flags: HW
LayerCount: 2
Fore
SplineSet
16 8 m 25
 16 10 l 25
 10 16 l 25
 6 12 l 25
 6 8 l 25
 11 3 l 25
 16 8 l 25
13 0 m 25
 9 0 l 25
 2 7 l 25
 2 13 l 25
 8 19 l 25
 12 19 l 17
 16 15 l 1
 16 21 l 1
 12 25 l 1
 10 25 l 1
 10 22 l 1
 6 22 l 1
 6 25 l 1
 3 25 l 1
 3 28 l 1
 6 28 l 1
 6 31 l 1
 10 31 l 1
 10 28 l 1
 14 28 l 1
 20 22 l 9
 20 7 l 25
 13 0 l 25
EndSplineSet
EndChar

StartChar: currency
Encoding: 164 164 185
Width: 28
VWidth: 0
Flags: HW
LayerCount: 2
Fore
SplineSet
12 9 m 25
 12 8 l 25
 6 2 l 25
 2 2 l 25
 2 3 l 25
 8 9 l 25
 12 9 l 25
26 26 m 25
 26 25 l 25
 20 19 l 25
 16 19 l 25
 16 20 l 25
 22 26 l 25
 26 26 l 25
16 9 m 25
 20 9 l 25
 26 3 l 25
 26 2 l 25
 22 2 l 25
 16 8 l 25
 16 9 l 25
2 26 m 25
 6 26 l 25
 12 20 l 25
 12 19 l 25
 8 19 l 25
 2 25 l 25
 2 26 l 25
EndSplineSet
Refer: 0 111 N 1 0 0 1 4 4 2
EndChar

StartChar: germandbls
Encoding: 223 223 186
Width: 24
VWidth: 0
Flags: HW
LayerCount: 2
Fore
SplineSet
16 3 m 17
 18 5 l 1
 18 10 l 1
 15 13 l 1
 10 13 l 1
 10 14 l 9
 15 19 l 25
 15 22 l 25
 12 25 l 1
 8 21 l 9
 8 0 l 1
 4 -4 l 1
 0 -4 l 1
 0 -3 l 1
 4 1 l 1
 4 22 l 1
 10 28 l 9
 14 28 l 25
 19 23 l 25
 19 18 l 17
 16 15 l 1
 18 15 l 1
 22 11 l 1
 22 4 l 1
 18 0 l 1
 14 0 l 1
 10 4 l 1
 10 5 l 1
 14 5 l 1
 16 3 l 17
EndSplineSet
EndChar

StartChar: copyright
Encoding: 169 169 187
Width: 36
VWidth: 0
Flags: HW
LayerCount: 2
Fore
SplineSet
2 7 m 25
 2 21 l 25
 12 31 l 25
 24 31 l 25
 34 22 l 25
 34 7 l 25
 24 -3 l 25
 12 -3 l 25
 2 7 l 25
22 28 m 25
 14 28 l 25
 6 20 l 25
 6 8 l 25
 14 0 l 25
 22 0 l 25
 30 8 l 25
 30 21 l 25
 22 28 l 25
EndSplineSet
Refer: 2 99 N 1 0 0 1 8 4 2
EndChar

StartChar: registered
Encoding: 174 174 188
Width: 36
VWidth: 0
Flags: HW
LayerCount: 2
Fore
SplineSet
15 14 m 29
 20 14 l 29
 22 16 l 29
 22 18 l 29
 19 21 l 29
 15 17 l 29
 15 14 l 29
21 4 m 5
 21 9 l 5
 19 11 l 5
 15 11 l 5
 15 7 l 5
 18 7 l 5
 18 4 l 5
 9 4 l 5
 9 7 l 5
 11 7 l 5
 11 19 l 5
 9 19 l 5
 9 22 l 5
 13 24 l 5
 15 24 l 5
 15 22 l 5
 17 24 l 13
 21 24 l 29
 26 19 l 29
 26 15 l 29
 23 12 l 21
 25 10 l 5
 25 7 l 5
 27 7 l 5
 27 4 l 5
 21 4 l 5
2 7 m 25
 2 21 l 25
 12 31 l 25
 24 31 l 25
 34 22 l 25
 34 7 l 25
 24 -3 l 25
 12 -3 l 25
 2 7 l 25
22 28 m 25
 14 28 l 25
 6 20 l 25
 6 8 l 25
 14 0 l 25
 22 0 l 25
 30 8 l 25
 30 21 l 25
 22 28 l 25
EndSplineSet
EndChar

StartChar: section
Encoding: 167 167 189
Width: 20
VWidth: 0
Flags: HW
LayerCount: 2
Fore
SplineSet
18 14 m 25
 14 14 l 25
 3 25 l 25
 3 26 l 25
 7 26 l 25
 18 15 l 25
 18 14 l 25
7 13 m 25
 10 10 l 25
 14 14 l 25
 18 14 l 1
 18 13 l 9
 12 7 l 25
 8 7 l 25
 3 12 l 17
 3 13 l 1
 7 13 l 25
3 25 m 1
 3 26 l 9
 8 31 l 25
 12 31 l 25
 18 25 l 17
 18 24 l 1
 14 24 l 25
 10 28 l 25
 7 25 l 25
 3 25 l 1
2 14 m 25
 6 14 l 25
 17 3 l 25
 17 2 l 25
 13 2 l 25
 2 13 l 25
 2 14 l 25
13 15 m 25
 10 18 l 25
 6 14 l 25
 2 14 l 1
 2 15 l 9
 8 21 l 25
 12 21 l 25
 17 16 l 17
 17 15 l 1
 13 15 l 25
17 3 m 1
 17 2 l 9
 12 -3 l 25
 8 -3 l 25
 2 3 l 17
 2 4 l 1
 6 4 l 25
 10 0 l 25
 13 3 l 25
 17 3 l 1
EndSplineSet
EndChar

StartChar: paragraph
Encoding: 182 182 190
Width: 26
VWidth: 0
Flags: HW
LayerCount: 2
Fore
SplineSet
7 11 m 25
 2 16 l 25
 2 22 l 25
 8 28 l 25
 24 28 l 1
 24 25 l 1
 22 25 l 1
 22 3 l 1
 24 3 l 1
 24 0 l 1
 18 0 l 1
 18 25 l 1
 15 25 l 1
 15 0 l 1
 8 0 l 1
 8 3 l 1
 11 3 l 1
 11 11 l 1
 7 11 l 25
EndSplineSet
EndChar

StartChar: yen
Encoding: 165 165 191
Width: 26
VWidth: 0
Flags: HW
LayerCount: 2
Fore
SplineSet
5 9 m 25
 23 9 l 25
 21 6 l 25
 3 6 l 25
 5 9 l 25
5 14 m 25
 23 14 l 25
 21 11 l 25
 3 11 l 25
 5 14 l 25
2 28 m 9
 8 28 l 25
 8 21 l 25
 13 16 l 25
 18 21 l 25
 18 28 l 25
 24 28 l 17
 24 25 l 1
 22 25 l 1
 22 20 l 9
 15 13 l 17
 15 3 l 1
 19 3 l 1
 19 0 l 9
 7 0 l 17
 7 3 l 1
 11 3 l 1
 11 13 l 9
 4 20 l 17
 4 25 l 1
 2 25 l 1
 2 28 l 9
EndSplineSet
EndChar
